<svg xmlns="http://www.w3.org/2000/svg" version="1.1" viewBox="-5.0 -10.0 110.0 135.0">
 <path d="m93.277 87.258h-86.555v2.8125h86.551v-2.8125zm-24.652-5.5703h20.125v-32.691h-20.125zm-57.375 0h20.125v-32.691h-20.125zm26.035 0v-21.703c0-0.30078 0.15234-0.5625 0.38672-0.71875l11.805-9.0391c0.32031-0.24219 0.75781-0.23047 1.0586 0.011719l11.836 9.0664c0.22266 0.16797 0.33984 0.42578 0.33984 0.68359h0.003906v21.703h4.1875v-36.863h-33.805v36.863h4.1875zm0.86719 1.7266h-0.003906-0.003907-29.566v2.1172h82.84v-2.1172h-29.57-0.003906-23.695zm16.176-1.7266h-8.5469l-0.050781-16.27 4.2734-3.3672 4.2734 3.3711 0.050781 16.27zm-10.266 0h-5.0508v-21.281l10.988-8.4141 10.988 8.4141v21.281h-4.9453l-0.054688-16.629c0.019531-0.27344-0.09375-0.55469-0.32812-0.73828l-5.1172-4.0352c-0.30469-0.25-0.75391-0.26562-1.0781-0.011718l-5.1328 4.0469v0.003907c-0.19922 0.15625-0.32812 0.40234-0.32812 0.67578l0.054688 16.688zm37.984-10.941v5.4492h-6.7188v-5.4492zm1.7227-0.86719v0.003906 0.003907 7.1719c0 0.47656-0.38672 0.86328-0.86328 0.86328h-8.4414c-0.47656 0-0.86328-0.38672-0.86328-0.86328v-12.855c0-0.28906 0.14453-0.54688 0.36328-0.70312l4.1875-3.3008c0.32422-0.25391 0.76953-0.23828 1.0781 0.011719l4.207 3.3164c0.21484 0.17188 0.32812 0.42188 0.32812 0.67578v5.6758zm-8.4414-0.85938v-4.4023l3.3594-2.6484 3.3594 2.6484v4.4023zm-50.656 1.7266v5.4492h-6.7188v-5.4492zm-6.7188-1.7266v-4.4023l3.3594-2.6484 3.3594 2.6484v4.4023zm-1.7227 0.86719v-0.003907-0.003906-5.6758c0-0.28906 0.14453-0.54688 0.36328-0.70312l4.1875-3.3008c0.32422-0.25391 0.76953-0.23828 1.0781 0.011719l4.207 3.3164c0.21484 0.17188 0.32812 0.42188 0.32812 0.67578v12.855c0 0.47656-0.38672 0.86328-0.86328 0.86328h-8.4414c-0.47656 0-0.86328-0.38672-0.86328-0.86328v-7.1719zm54.809-22.617h-2.4141v-3.3086c0-0.47656-0.38672-0.86328-0.86328-0.86328h-35.527c-0.47656 0-0.86328 0.38672-0.86328 0.86328v3.3086h-2.4141v-9.6406h42.078v9.6406zm-38.793-11.363h35.508c1.1836-1.3984 1.9883-2.7617 2.4258-4.0781 0.50781-1.5352 0.5-3.0234-0.019532-4.4648-0.53906-1.4883-1.625-2.9492-3.2578-4.3828-3.2461-2.8477-8.5938-5.543-16.039-8.0781v-4.1055c0-0.47656-0.38672-0.86328-0.86328-0.86328s-0.86328 0.38672-0.86328 0.86328v4.1055c-7.4453 2.5352-12.793 5.2305-16.039 8.0781-1.6328 1.4336-2.7188 2.8945-3.2578 4.3828-0.51953 1.4375-0.52734 2.9258-0.019532 4.4648 0.43359 1.3203 1.2422 2.6797 2.4258 4.0781z" fill-rule="evenodd"/>
<text x="0.0" y="117.5" font-size="5.0" font-weight="bold" font-family="Arbeit Regular, Helvetica, Arial-Unicode, Arial, Sans-serif" fill="#000000">Created by Icon Designer</text><text x="0.0" y="122.5" font-size="5.0" font-weight="bold" font-family="Arbeit Regular, Helvetica, Arial-Unicode, Arial, Sans-serif" fill="#000000">from Noun Project</text></svg>