<svg xmlns="http://www.w3.org/2000/svg" version="1.1" viewBox="-5.0 -10.0 110.0 135.0">
 <path d="m33.312 73.305v-36.316l-11.066-5.6094v35.594zm2.6719 12.273-25.523-15.566v-2.9453l25.523 15.566zm0.81641-2.8906v3.0312l52.738-19.648v-3.0312zm10.93-14.828v-36.234l-13.602 5.3906v36.387zm0.81641-36.258 4.7461 1.707v36.93l-4.6719-2.5703c-0.023438-0.015625-0.046875-0.023438-0.074219-0.035157zm-0.59375-0.94141-14.211 5.6328-10.93-5.543 39.84-16.465 12.238 4.3594-15.504 6.6641c-0.20703 0.089844-0.30078 0.32812-0.21484 0.53516 0.046875 0.11328 0.14062 0.19141 0.25 0.22656l5.1484 1.9453-10.883 4.5781-5.375-1.9336c-0.050781-0.023437-0.10938-0.039062-0.17188-0.039062-0.066406 0-0.12891 0.015625-0.18359 0.042968zm-5.7227 7.8633 2.2773-0.80859c0.050782-0.019532 0.10156-0.03125 0.16016-0.03125 0.22656 0 0.40625 0.18359 0.40625 0.40625v3.3984c0 0.16797-0.10547 0.32422-0.27344 0.38281l-2.2773 0.80859c-0.050782 0.019531-0.10156 0.03125-0.16016 0.03125-0.22656 0-0.40625-0.18359-0.40625-0.40625v-3.3984c0-0.16797 0.10547-0.32422 0.27344-0.38281zm-4.6055 1.6367 2.2773-0.80859c0.050781-0.019531 0.10156-0.03125 0.16016-0.03125 0.22656 0 0.40625 0.18359 0.40625 0.40625v3.3984c0 0.16797-0.10547 0.32422-0.27344 0.38281l-2.2773 0.80859c-0.050781 0.019532-0.10156 0.03125-0.16016 0.03125-0.22656 0-0.40625-0.18359-0.40625-0.40625v-3.3984c0-0.16797 0.10547-0.32422 0.27344-0.38281zm4.6055 5.1602 2.2773-0.80859c0.050782-0.019531 0.10156-0.03125 0.16016-0.03125 0.22656 0 0.40625 0.18359 0.40625 0.40625v3.3984c0 0.16797-0.10547 0.32422-0.27344 0.38281l-2.2773 0.80859c-0.050782 0.019532-0.10156 0.03125-0.16016 0.03125-0.22656 0-0.40625-0.18359-0.40625-0.40625v-3.3984c0-0.16797 0.10547-0.32422 0.27344-0.38281zm-4.6055 1.6328 2.2773-0.80859c0.050781-0.019531 0.10156-0.03125 0.16016-0.03125 0.22656 0 0.40625 0.18359 0.40625 0.40625v3.3984c0 0.16797-0.10547 0.32422-0.27344 0.38281l-2.2773 0.80859c-0.050781 0.019531-0.10156 0.03125-0.16016 0.03125-0.22656 0-0.40625-0.18359-0.40625-0.40625v-3.3984c0-0.16797 0.10547-0.32422 0.27344-0.38281zm4.6055 5.1641 2.2773-0.80859c0.050782-0.019532 0.10156-0.03125 0.16016-0.03125 0.22656 0 0.40625 0.18359 0.40625 0.40625v3.3984c0 0.16797-0.10547 0.32422-0.27344 0.38281l-2.2773 0.80859c-0.050782 0.019531-0.10156 0.03125-0.16016 0.03125-0.22656 0-0.40625-0.18359-0.40625-0.40625v-3.3984c0-0.16797 0.10547-0.32422 0.27344-0.38281zm-4.6055 1.6328 2.2773-0.80859c0.050781-0.019531 0.10156-0.03125 0.16016-0.03125 0.22656 0 0.40625 0.18359 0.40625 0.40625v3.3984c0 0.16797-0.10547 0.32422-0.27344 0.38281l-2.2773 0.80859c-0.050781 0.019531-0.10156 0.03125-0.16016 0.03125-0.22656 0-0.40625-0.18359-0.40625-0.40625v-3.3984c0-0.16797 0.10547-0.32422 0.27344-0.38281zm4.6055 5.1641 2.2773-0.80859c0.050782-0.019531 0.10156-0.03125 0.16016-0.03125 0.22656 0 0.40625 0.18359 0.40625 0.40625v3.3984c0 0.16797-0.10547 0.32422-0.27344 0.38281l-2.2773 0.80859c-0.050782 0.019532-0.10156 0.03125-0.16016 0.03125-0.22656 0-0.40625-0.18359-0.40625-0.40625v-3.3984c0-0.16797 0.10547-0.32422 0.27344-0.38281zm-4.6055 1.6328 2.2773-0.80859c0.050781-0.019531 0.10156-0.03125 0.16016-0.03125 0.22656 0 0.40625 0.18359 0.40625 0.40625v3.3984c0 0.16797-0.10547 0.32422-0.27344 0.38281l-2.2773 0.80859c-0.050781 0.019531-0.10156 0.03125-0.16016 0.03125-0.22656 0-0.40625-0.18359-0.40625-0.40625v-3.3984c0-0.16797 0.10547-0.32422 0.27344-0.38281zm23.168-25.055c-0.16797 0.058593-0.27344 0.21484-0.27344 0.38281v3.082c0 0.22656 0.18359 0.40625 0.40625 0.40625 0.058594 0 0.10938-0.011719 0.16016-0.03125l2.0625-0.73047c0.16797-0.058593 0.27344-0.21484 0.27344-0.38281v-3.082c0-0.22656-0.18359-0.40625-0.40625-0.40625-0.058594 0-0.10938 0.011719-0.16016 0.03125zm-4.1719 1.4805c-0.16797 0.058594-0.27344 0.21484-0.27344 0.38281v3.082c0 0.22656 0.18359 0.40625 0.40625 0.40625 0.058594 0 0.10938-0.011719 0.16016-0.03125l2.0625-0.73047c0.16797-0.058593 0.27344-0.21484 0.27344-0.38281v-3.082c0-0.22656-0.18359-0.40625-0.40625-0.40625-0.058594 0-0.10938 0.011718-0.16016 0.03125zm4.1719 4.6797 2.0625-0.73047c0.050781-0.019531 0.10156-0.03125 0.16016-0.03125 0.22656 0 0.40625 0.18359 0.40625 0.40625v3.082c0 0.16797-0.10547 0.32422-0.27344 0.38281l-2.0625 0.73047c-0.050782 0.019531-0.10156 0.03125-0.16016 0.03125-0.22656 0-0.40625-0.18359-0.40625-0.40625v-3.082c0-0.16797 0.10547-0.32422 0.27344-0.38281zm-4.1719 1.4805 2.0625-0.73047c0.050781-0.019532 0.10156-0.03125 0.16016-0.03125 0.22656 0 0.40625 0.18359 0.40625 0.40625v3.082c0 0.16797-0.10547 0.32422-0.27344 0.38281l-2.0625 0.73047c-0.050781 0.019532-0.10156 0.03125-0.16016 0.03125-0.22656 0-0.40625-0.18359-0.40625-0.40625v-3.082c0-0.16797 0.10547-0.32422 0.27344-0.38281zm4.1719 4.6797 2.0625-0.73047c0.050781-0.019531 0.10156-0.03125 0.16016-0.03125 0.22656 0 0.40625 0.18359 0.40625 0.40625v3.082c0 0.16797-0.10547 0.32422-0.27344 0.38281l-2.0625 0.73047c-0.050782 0.019531-0.10156 0.03125-0.16016 0.03125-0.22656 0-0.40625-0.18359-0.40625-0.40625v-3.082c0-0.16797 0.10547-0.32422 0.27344-0.38281zm-4.1719 1.4844 2.0625-0.73047c0.050781-0.019531 0.10156-0.03125 0.16016-0.03125 0.22656 0 0.40625 0.18359 0.40625 0.40625v3.082c0 0.16797-0.10547 0.32422-0.27344 0.38281l-2.0625 0.73047c-0.050781 0.019531-0.10156 0.03125-0.16016 0.03125-0.22656 0-0.40625-0.18359-0.40625-0.40625v-3.082c0-0.16797 0.10547-0.32422 0.27344-0.38281zm4.1719 4.6797 2.0625-0.73047c0.050781-0.019532 0.10156-0.03125 0.16016-0.03125 0.22656 0 0.40625 0.18359 0.40625 0.40625v3.082c0 0.16797-0.10547 0.32422-0.27344 0.38281l-2.0625 0.73047c-0.050782 0.019532-0.10156 0.03125-0.16016 0.03125-0.22656 0-0.40625-0.18359-0.40625-0.40625v-3.082c0-0.16797 0.10547-0.32422 0.27344-0.38281zm-4.1719 1.4805 2.0625-0.73047c0.050781-0.019531 0.10156-0.03125 0.16016-0.03125 0.22656 0 0.40625 0.18359 0.40625 0.40625v3.082c0 0.16797-0.10547 0.32422-0.27344 0.38281l-2.0625 0.73047c-0.050781 0.019531-0.10156 0.03125-0.16016 0.03125-0.22656 0-0.40625-0.18359-0.40625-0.40625v-3.082c0-0.16797 0.10547-0.32422 0.27344-0.38281zm12.605-26.359c-0.16797 0.058594-0.27344 0.21484-0.27344 0.38281v3.082c0 0.22656 0.18359 0.40625 0.40625 0.40625 0.058594 0 0.10938-0.011719 0.16016-0.03125l2.0625-0.73047c0.16797-0.058593 0.27344-0.21484 0.27344-0.38281v-3.082c0-0.22656-0.18359-0.40625-0.40625-0.40625-0.058594 0-0.10938 0.011718-0.16016 0.03125zm0 6.1602c-0.16797 0.058594-0.27344 0.21484-0.27344 0.38281v3.082c0 0.22656 0.18359 0.40625 0.40625 0.40625 0.058594 0 0.10938-0.011718 0.16016-0.03125l2.0625-0.73047c0.16797-0.058594 0.27344-0.21484 0.27344-0.38281v-3.082c0-0.22656-0.18359-0.40625-0.40625-0.40625-0.058594 0-0.10938 0.011718-0.16016 0.03125zm0 6.1641 2.0625-0.73047c0.050782-0.019531 0.10156-0.03125 0.16016-0.03125 0.22656 0 0.40625 0.18359 0.40625 0.40625v3.082c0 0.16797-0.10547 0.32422-0.27344 0.38281l-2.0625 0.73047c-0.050781 0.019531-0.10156 0.03125-0.16016 0.03125-0.22656 0-0.40625-0.18359-0.40625-0.40625v-3.082c0-0.16797 0.10547-0.32422 0.27344-0.38281zm0 6.1602 2.0625-0.73047c0.050782-0.019531 0.10156-0.03125 0.16016-0.03125 0.22656 0 0.40625 0.18359 0.40625 0.40625v3.082c0 0.16797-0.10547 0.32422-0.27344 0.38281l-2.0625 0.73047c-0.050781 0.019531-0.10156 0.03125-0.16016 0.03125-0.22656 0-0.40625-0.18359-0.40625-0.40625v-3.082c0-0.16797 0.10547-0.32422 0.27344-0.38281zm-10.945 15.875c-0.16797 0.058594-0.27344 0.21484-0.27344 0.38281v5.0039l-3.9023 1.4922v-37.043l11.152-4.6914v37.465l-2.8789 1.1016v-4.5938c0-0.22656-0.18359-0.40625-0.40625-0.40625-0.058594 0-0.10938 0.011719-0.16016 0.03125l-3.5312 1.2539zm-36.848-0.73047v4.4805c0 0.16016 0.089844 0.29688 0.22266 0.36328l11.848 6.7812c0.0625 0.039063 0.13672 0.0625 0.21875 0.0625 0.0625 0 0.12109-0.015624 0.17188-0.039062l14.492-5.9023 5.1016 2.8086c0.10547 0.0625 0.23438 0.078125 0.35547 0.03125l5.9922-2.293 2.2695-0.80469c0.078125-0.027344 0.14062-0.074219 0.1875-0.13672l3.5-1.3398c0.16406-0.054687 0.28125-0.20703 0.28125-0.38672v-38.355c0-0.16406-0.10156-0.32031-0.26562-0.37891l-5.1758-1.957 14.961-6.4297v39.508l-8.9961 3.7031c-0.20703 0.085938-0.30469 0.32422-0.22266 0.53125 0.085938 0.20703 0.32422 0.30469 0.53125 0.22266l9.25-3.8086c0.15625-0.066407 0.25-0.21484 0.25391-0.375v-3.5508l12.562 6.9258-52.539 19.574-25.445-15.516 10.438-3.7148z" fill-rule="evenodd"/>
<text x="0.0" y="117.5" font-size="5.0" font-weight="bold" font-family="Arbeit Regular, Helvetica, Arial-Unicode, Arial, Sans-serif" fill="#000000">Created by Eskak</text><text x="0.0" y="122.5" font-size="5.0" font-weight="bold" font-family="Arbeit Regular, Helvetica, Arial-Unicode, Arial, Sans-serif" fill="#000000">from Noun Project</text></svg>