<svg width="2186" height="2346" viewBox="0 0 2186 2346" fill="none" xmlns="http://www.w3.org/2000/svg">
<path d="M1299.4 0.978263C1272.46 4.3116 1252.2 10.4449 1225.4 23.3783C1192.86 39.1116 1165 59.6449 1132.06 91.6449C1121.53 101.778 1111.53 110.712 1109.66 111.378C1104.33 113.512 1098.46 110.978 1084.73 100.712C1047.66 73.1116 1034.2 66.9783 970.731 48.8449C931.531 37.7783 920.465 36.1783 888.865 37.2449C833.398 39.2449 801.665 46.0449 764.065 64.0449C732.598 79.1116 711.265 94.1783 690.731 115.778C677.398 129.778 669.131 141.378 660.865 158.045C648.998 181.645 636.065 190.845 582.731 213.378C532.865 234.445 444.732 291.912 379.398 346.045C338.465 379.912 286.331 430.178 255.398 465.512C237.798 485.778 209.798 520.578 194.598 541.512C140.865 614.978 95.7981 701.378 59.9315 799.378C43.1315 845.112 25.3981 909.378 20.7315 941.512C19.1315 951.778 16.0648 965.912 13.9315 972.845C10.7315 982.845 9.6648 989.378 8.73147 1003.51C8.0648 1013.38 6.33146 1026.58 4.8648 1032.84C2.99813 1040.58 1.6648 1051.91 0.864798 1068.84C-0.468536 1095.64 -0.201869 1224.18 1.2648 1238.18C1.79813 1242.98 2.73146 1255.78 3.39813 1266.84C4.19813 1279.91 6.19813 1295.51 9.39813 1311.51C12.3315 1326.58 14.9981 1345.78 16.1981 1360.85C19.6648 1403.91 24.4648 1430.18 37.5315 1476.05C41.5315 1490.05 48.0648 1515.91 52.1981 1533.51C72.8648 1622.71 95.1315 1697.78 125.265 1779.91C170.598 1903.51 210.731 1998.45 272.465 2128.18C314.465 2216.45 321.131 2229.38 349.798 2277.51C358.998 2292.85 369.398 2311.78 372.998 2319.51C382.065 2339.25 382.331 2339.65 386.465 2342.71C389.398 2344.85 392.198 2345.51 398.465 2345.51C402.998 2345.51 513.798 2345.38 644.598 2345.11L882.331 2344.85L881.531 2341.11C879.665 2332.98 869.531 2315.38 858.865 2301.51C852.731 2293.38 844.065 2281.91 839.798 2275.78C818.598 2245.65 811.265 2235.25 803.665 2224.85C793.931 2211.38 786.598 2197.11 785.265 2188.98C784.331 2183.38 784.465 2183.25 787.531 2184.18C793.798 2186.18 797.665 2188.71 809.131 2199.11C815.665 2204.85 824.598 2212.31 829.131 2215.91C840.865 2224.85 900.598 2262.98 913.798 2269.78C923.398 2274.85 925.931 2275.51 933.398 2275.51C943.131 2275.51 950.198 2273.11 974.198 2261.78C1017.53 2241.25 1063.8 2210.45 1112.2 2169.78C1141.53 2145.25 1149.13 2138.05 1197.13 2090.31C1242.6 2045.25 1254.46 2032.58 1265.13 2018.58C1268.6 2014.05 1272.73 2009.38 1274.46 2008.18C1278.6 2005.25 1285.26 2005.65 1292.46 2009.38C1308.2 2017.38 1351.93 2019.91 1398.06 2015.65C1414.6 2014.18 1432.06 2012.58 1437 2012.05C1443.13 2011.51 1450.33 2009.38 1460.33 2005.25C1497 1990.05 1506.06 1988.58 1506.06 1997.38C1506.06 2005.38 1504.73 2007.78 1470.33 2063.51C1463.53 2074.58 1450.73 2096.98 1441.93 2113.25C1413.8 2164.85 1383.26 2216.05 1358.2 2253.51C1351.8 2262.98 1343.26 2276.85 1339.13 2284.31C1335 2291.65 1328.46 2301.51 1324.73 2306.18C1313 2320.85 1301.26 2341.78 1303.53 2344.18C1304.86 2345.51 1796.73 2344.98 1799.26 2343.65C1800.6 2342.85 1803.53 2337.65 1805.93 2331.91C1808.33 2326.18 1815.26 2312.85 1821.4 2302.18C1844.6 2261.78 1903.13 2148.18 1934.2 2083.51C1980.6 1986.45 2010.06 1916.71 2043.93 1823.38C2106.86 1649.65 2137 1544.05 2155.4 1432.58C2158.33 1414.45 2163.8 1384.85 2167.4 1366.85C2178.73 1310.98 2179.53 1305.24 2180.73 1264.84C2181.4 1241.51 2182.46 1226.04 2183.66 1222.18C2186.06 1213.78 2186.2 1063.38 2183.66 1044.84C2178.86 1009.38 2153.66 890.845 2142.73 853.112C2106.73 727.912 2034.33 591.245 1950.6 490.578C1910.06 441.912 1854.46 386.845 1788.73 330.445C1758.46 304.312 1709.13 270.312 1678.2 254.178C1653.4 241.245 1644.46 235.645 1641.4 230.978C1639.66 228.312 1639.66 226.845 1641.66 218.045C1643.53 210.312 1643.93 202.045 1643.93 180.178C1643.93 154.045 1643.66 151.378 1640.33 139.245C1638.33 132.178 1634.46 121.112 1631.66 114.578C1616.46 79.1116 1590.6 58.5783 1536.6 39.1116C1513.13 30.5783 1503.53 29.5116 1467.13 31.6449C1428.46 33.7783 1424.2 32.8449 1384.2 14.8449C1373.26 9.9116 1359.66 4.7116 1354.2 3.37826C1342.33 0.178263 1314.73 -1.02174 1299.4 0.978263ZM1307.53 28.0449C1310.06 29.1116 1317.13 30.3116 1323.4 30.8449C1358.73 33.7783 1385.13 44.9783 1406.06 66.0449C1419.26 79.2449 1424.73 88.7116 1432.06 110.578C1437.8 127.512 1439.13 140.845 1436.73 157.112C1434.2 174.978 1427.53 186.845 1405.66 212.178C1391.8 228.045 1392.46 226.712 1399.66 225.912C1407.93 224.978 1416.73 218.445 1427.8 205.112C1452.73 174.978 1462.2 151.912 1462.46 120.845C1462.46 102.578 1461 95.7783 1453.93 81.3783C1447.26 67.9116 1447.26 63.5116 1454.06 61.7783C1456.6 61.1116 1468.33 60.8449 1480.06 61.1116C1499.66 61.7783 1502.46 62.1783 1514.06 66.0449C1527.8 70.7116 1541.53 77.6449 1555.4 86.8449C1580.06 103.512 1594.2 122.578 1603 151.112C1606.33 161.912 1606.6 164.712 1606.6 184.845C1606.6 203.245 1606.06 208.578 1603.66 217.378C1597.26 240.712 1579.93 268.578 1558.86 289.512C1543.93 304.445 1516.46 324.045 1495.93 334.578C1482.33 341.645 1474.86 348.178 1478.06 350.178C1481.4 352.312 1490.6 351.645 1503.8 348.178C1520.06 344.045 1527.66 340.978 1538.46 334.312C1556.73 323.245 1563.4 320.445 1572.06 320.445C1590.2 320.578 1620.06 337.645 1649 364.845C1674.2 388.312 1693.13 421.778 1701.66 458.445C1705 471.912 1705.26 476.045 1705.26 497.512C1705.13 519.112 1704.86 522.845 1701.66 534.845C1699.66 542.445 1695 554.578 1690.73 563.112C1674.86 595.378 1653.66 616.312 1620.06 633.245C1592.2 647.245 1572.06 650.578 1517.4 650.712L1478.73 650.845L1467.26 646.445C1460.86 644.045 1451.26 639.112 1445.66 635.512C1433.4 627.378 1411.13 607.778 1406.73 601.112C1401.26 592.845 1398.86 580.712 1398.73 562.178C1398.73 546.178 1398.86 545.112 1402.86 536.712C1408.33 525.245 1414.73 518.312 1424.86 512.845C1435.4 507.245 1438.06 504.578 1438.06 499.112C1438.06 492.978 1434.06 487.378 1425.93 481.912C1410.46 471.778 1390.86 468.045 1379.4 473.245C1376.73 474.312 1369.66 476.578 1363.53 478.178C1343 483.378 1331.26 491.778 1318.33 510.578C1293.26 547.112 1281.66 592.578 1285 642.178C1286.6 665.112 1285.53 675.778 1281.4 680.578L1278.33 684.178H1259.13C1245.93 684.178 1238.6 683.645 1235.4 682.312C1232.73 681.245 1223.26 680.045 1213.66 679.645C1200.86 678.978 1196.33 678.312 1195.4 676.845C1192.86 672.845 1192.06 660.312 1192.46 629.912C1193 596.312 1192.2 589.245 1186.73 575.778C1185 571.645 1182.33 560.045 1180.86 550.178C1177.93 530.578 1165.66 484.045 1159.4 468.178C1145.4 432.978 1123.4 404.578 1095.8 386.178C1080.33 375.778 1063.13 370.978 1058.33 375.778C1057.26 376.845 1056.73 382.178 1056.73 390.712C1056.6 424.978 1045.93 449.112 1020.2 473.912C1002.73 490.712 984.065 502.312 950.865 516.712C933.931 524.178 931.531 524.845 922.865 524.845C917.665 524.845 904.998 526.045 894.731 527.645C878.065 530.178 874.465 530.312 860.198 528.978C829.265 526.045 830.065 526.312 771.531 497.778C763.931 494.178 753.131 487.645 747.398 483.378C726.198 467.378 693.798 429.378 680.331 404.712C662.598 372.045 653.931 335.245 653.931 292.845C654.065 254.178 660.465 225.112 676.198 191.645C706.198 128.045 764.865 82.0449 834.331 67.5116C881.931 57.6449 941.931 61.9116 993.398 78.8449C1035 92.4449 1065.93 110.578 1094.2 137.778C1115.53 158.445 1117.4 158.178 1134.6 132.312C1152.2 105.912 1182.73 76.4449 1209.53 59.7783C1229.26 47.5116 1260.33 33.5116 1264.6 34.8449C1265.8 35.2449 1271 34.3116 1276.06 32.8449C1281.26 31.3783 1287.53 30.1783 1290.06 30.1783C1293.66 30.0449 1299.8 28.1783 1302.86 26.3116C1303 26.1783 1305.13 26.9783 1307.53 28.0449ZM501.398 398.845C521.398 402.978 546.731 419.512 567.265 441.778C590.998 467.645 603.398 488.045 609.531 512.178C612.465 523.378 613.131 529.645 613.665 550.445L614.465 575.378L610.731 582.845C606.198 592.178 597.398 601.245 579.398 615.112C560.198 629.912 525.265 664.045 512.732 680.178C499.265 697.778 494.198 702.178 487.532 702.178C480.465 702.178 462.732 697.512 454.332 693.378C450.598 691.512 443.398 689.378 438.465 688.712C426.998 687.112 416.865 684.445 402.465 679.245C395.931 676.978 388.998 675.245 386.731 675.378C380.465 675.645 374.065 678.178 374.065 680.178C374.065 681.245 376.065 684.312 378.465 687.112C384.998 694.578 420.731 724.845 426.598 727.778L431.932 730.445L441.532 727.512C465.398 720.045 469.265 730.712 451.398 754.845C439.398 771.112 430.332 785.912 415.398 813.645C407.931 827.512 399.398 842.845 396.465 847.778C390.598 857.645 383.398 864.845 379.398 864.845C375.131 864.845 371.398 858.578 371.398 851.378C371.398 840.578 366.998 837.645 345.398 834.578C319.131 830.978 317.531 830.845 310.865 834.045C295.665 841.512 286.465 864.845 293.798 877.645C297.931 885.112 328.065 910.178 332.865 910.178C334.198 910.178 339.931 908.712 345.665 906.845C363.798 901.112 368.198 902.712 367.931 914.712C367.931 923.245 365.265 931.245 354.731 954.845C344.998 976.845 345.265 975.912 343.398 995.912C342.598 1004.58 340.998 1014.18 339.798 1017.24C338.731 1020.31 337.265 1027.64 336.731 1033.38C335.931 1042.58 335.265 1044.44 332.198 1047.11C327.798 1050.84 320.731 1051.24 317.798 1047.78C316.598 1046.58 314.731 1043.38 313.665 1040.84C311.265 1035.11 305.531 1029.24 299.931 1026.84C297.531 1025.91 290.065 1024.18 283.131 1022.98C276.331 1021.91 264.198 1019.51 256.065 1017.64C248.065 1015.78 238.865 1014.18 235.931 1014.18C228.598 1014.18 212.465 1017.24 189.398 1023.11C179.131 1025.64 163.398 1029.11 154.331 1030.84C133.798 1034.84 125.398 1038.58 119.398 1046.31C110.065 1058.71 103.931 1061.11 97.9315 1054.71C95.1315 1051.64 94.7315 1050.18 94.8648 1041.11C94.9981 1034.84 96.5981 1023.64 99.2648 1012.44C101.798 1001.24 103.398 990.445 103.398 984.712C103.398 970.445 106.598 966.312 117.131 966.178C119.931 966.178 121.398 967.245 123.131 970.312C124.331 972.712 127.131 976.578 129.265 978.978C132.331 982.845 133.931 983.512 138.598 983.512C152.198 983.512 199.131 973.378 205.931 968.978C210.331 966.178 200.731 957.378 182.065 947.245C176.598 944.178 168.731 939.512 164.731 936.845C145.931 924.312 144.598 924.312 127.265 938.312C122.598 942.045 118.731 940.045 116.731 933.112C114.598 925.378 115.131 919.378 118.865 905.912C128.331 872.045 129.931 868.845 137.398 868.845C143.665 868.845 145.798 872.445 148.065 886.845C149.531 895.245 150.865 899.778 153.398 902.978C157.265 908.045 168.065 916.045 185.531 926.578C192.065 930.578 204.998 939.378 214.198 946.178C239.265 964.978 242.865 966.312 300.065 979.112C310.598 981.378 317.665 980.312 323.798 975.378C327.531 972.578 331.398 962.045 331.398 954.978C331.398 948.312 326.065 939.645 316.198 930.178C310.998 925.245 293.265 908.312 276.731 892.712C260.331 876.978 235.931 853.645 222.731 840.712C198.331 816.978 190.865 810.845 180.331 806.312C171.931 802.712 168.065 797.245 163.398 782.312C161.265 775.112 159.398 768.578 159.398 767.778C159.398 766.978 160.998 765.112 163.131 763.512C166.331 760.845 167.798 760.578 178.065 761.245C184.331 761.645 197.131 763.778 206.731 766.045C216.198 768.312 230.998 770.845 239.665 771.512C248.198 772.178 257.798 773.778 260.998 774.978C274.065 779.645 280.998 780.978 300.731 782.178C316.865 783.112 325.798 784.445 341.398 788.178C382.998 798.312 405.665 795.245 405.265 779.512C404.865 767.112 393.398 754.578 358.065 728.312C338.731 713.912 328.865 705.245 312.731 688.845C291.131 666.845 283.665 660.978 271.398 655.912C262.331 652.178 254.865 652.045 246.198 655.512C240.465 657.778 239.398 657.778 238.065 656.045C233.531 650.712 241.531 632.045 256.731 612.845C270.465 595.378 276.598 586.445 281.798 576.045C286.998 565.778 296.998 556.445 306.465 553.378C316.598 549.912 331.265 550.312 343.398 554.178C362.331 560.312 383.131 577.912 392.998 596.178C396.731 603.245 397.398 605.778 397.931 617.512C398.731 630.178 398.865 630.845 402.198 632.445C408.731 635.645 460.065 648.978 476.065 651.645C494.732 654.978 505.798 654.578 511.132 650.578C516.065 646.845 516.198 643.378 511.665 633.645C504.332 618.178 492.598 602.178 462.198 566.978C454.865 558.312 442.732 542.845 435.265 532.578C419.665 510.978 407.931 498.045 399.665 493.245C394.065 489.912 393.398 489.778 385.531 491.245C378.198 492.712 376.998 492.578 374.065 490.312C370.065 487.378 366.731 479.378 367.798 475.112C368.331 473.378 370.865 470.845 373.798 469.245C382.331 464.312 389.265 458.045 400.065 445.512C411.665 431.778 418.065 425.778 429.398 417.512C454.598 399.378 476.598 393.645 501.398 398.845ZM1124.33 523.378C1147.8 524.845 1149.8 527.378 1154.73 561.778C1160.73 602.712 1162.2 618.578 1162.86 645.512C1163.53 670.978 1163.53 672.445 1160.86 676.578C1156.86 682.845 1150.86 684.845 1129.53 686.845C1079.53 691.645 1067.66 693.778 1034.86 703.645C961.265 725.645 919.531 745.245 866.065 782.845C822.465 813.378 798.065 836.045 798.065 845.778C798.065 848.312 798.865 848.845 801.931 848.845C808.065 848.845 821.798 844.045 834.731 837.512C851.931 828.578 872.598 823.512 894.865 822.578C914.598 821.778 921.531 822.578 962.998 830.312C1010.73 839.112 1034.73 847.245 1081.4 870.178C1124.73 891.512 1192.86 932.178 1231.26 959.645C1285.53 998.445 1358.06 1062.84 1379.4 1091.24C1388.73 1103.78 1390.86 1105.11 1408.46 1108.84C1425.93 1112.44 1434.73 1119.24 1442.73 1135.38C1457 1163.51 1449.13 1195.24 1425.13 1207.11C1418.46 1210.31 1415.66 1210.71 1399.53 1211.38C1385.13 1212.04 1380.46 1212.71 1377.66 1214.58C1374.2 1216.84 1368.6 1224.58 1361.66 1236.98C1349.13 1259.24 1319.8 1295.11 1286.06 1329.38C1216.73 1399.91 1152.06 1450.45 1060.73 1505.65C1019.13 1530.85 1003.4 1538.98 965.398 1554.85C954.465 1559.51 938.198 1566.31 929.398 1570.18C912.065 1577.65 911.531 1577.78 888.598 1574.71C880.065 1573.51 877.398 1576.31 878.865 1584.71C879.531 1588.05 880.065 1595.38 880.065 1600.98C880.065 1609.65 879.531 1611.78 876.465 1616.45C870.998 1624.85 866.598 1626.18 845.665 1626.18C829.531 1626.18 827.398 1626.45 824.198 1628.98C818.731 1633.25 819.398 1639.51 825.798 1644.85C838.865 1655.65 880.998 1671.91 902.198 1674.31C908.865 1675.11 924.998 1678.31 937.931 1681.51C975.665 1690.98 988.198 1691.65 1044.73 1687.38C1054.6 1686.58 1079 1685.51 1098.73 1684.98L1134.73 1683.91L1158.46 1677.65C1171.53 1674.31 1189.26 1670.31 1197.8 1668.71C1239.93 1661.25 1299.4 1643.25 1342.73 1624.85C1370.33 1613.11 1429.93 1581.38 1440.73 1572.71C1443.66 1570.31 1447.53 1565.38 1449.4 1561.78C1452.73 1555.11 1452.73 1554.85 1451.8 1529.38C1451 1505.78 1451.26 1502.98 1453.8 1494.58C1455.26 1489.65 1457.26 1480.71 1458.06 1474.85C1459.66 1463.78 1465.13 1445.51 1471.4 1429.51C1480.86 1405.65 1526.2 1312.84 1556.06 1256.18C1586.2 1198.98 1600.6 1148.04 1604.86 1083.64C1610.2 1003.51 1587.26 913.645 1545 848.845C1516.2 804.712 1469.13 762.578 1419.4 736.445C1403.26 727.912 1356.33 707.245 1338.73 700.845C1314.46 692.045 1315.4 693.912 1313.8 654.178C1311.26 594.045 1317 563.512 1330.73 563.512C1340.46 563.512 1358.73 571.112 1365 577.778C1369.26 582.312 1371.26 587.112 1375.93 603.512C1380.46 618.978 1384.2 626.445 1392.6 636.578C1405.13 651.645 1425.4 664.312 1457.26 676.712C1478.86 685.245 1488.86 687.245 1515.13 688.578C1541.8 690.045 1544.73 691.245 1561.66 707.912C1580.2 726.045 1618.86 767.378 1632.33 783.645C1690.86 854.045 1733 945.912 1750.73 1041.51C1769 1140.44 1765 1237.11 1736.73 1378.18C1717 1476.85 1691.66 1561.65 1655.13 1652.18C1648.86 1667.51 1642.06 1685.25 1640.06 1691.51C1634.46 1708.58 1630.2 1716.71 1626.6 1717.65C1622.6 1718.71 1615.4 1716.31 1604.73 1710.58C1599.93 1707.91 1592.2 1703.78 1587.4 1701.11C1582.6 1698.58 1573.26 1692.45 1566.73 1687.51C1560.06 1682.58 1549.53 1675.38 1543.4 1671.51C1525.66 1660.58 1517.53 1653.38 1505 1637.51C1490.86 1619.65 1477.53 1605.25 1472.6 1602.71C1464.86 1598.85 1461 1600.05 1440.73 1613.51C1406.86 1635.91 1372.86 1651.11 1316.46 1668.71C1249 1689.78 1206.33 1701.51 1172.06 1708.05C1146.86 1712.85 1128.33 1716.58 1114.73 1719.51C1104.6 1721.65 1101 1721.91 1091.53 1720.85C1080.2 1719.51 1074.6 1720.18 1063.93 1723.91C1059.8 1725.38 1053.4 1725.78 1035.26 1725.25C1017.26 1724.85 1011.26 1725.11 1008.73 1726.45C1004.06 1729.11 1004.73 1734.18 1011.13 1742.58C1018.06 1751.65 1020.46 1759.51 1022.33 1778.45C1024.73 1803.25 1021 1822.45 1009.93 1841.25C1003.66 1851.78 989.398 1866.45 979.265 1872.45C972.465 1876.45 970.998 1876.85 955.398 1877.65C925.398 1879.25 908.465 1874.31 894.331 1859.78C873.398 1838.45 868.465 1805.51 881.665 1774.18C887.798 1759.38 892.465 1752.71 907.931 1736.85C916.198 1728.45 923.665 1719.51 924.598 1717.11C927.665 1709.65 924.731 1708.05 897.931 1703.51C879.665 1700.31 861.665 1693.51 827.531 1676.45L800.331 1662.85L788.198 1662.98C778.598 1662.98 770.865 1664.31 750.731 1669.25C716.731 1677.51 711.665 1678.18 685.398 1678.18C658.198 1678.18 648.731 1676.85 629.931 1670.98C610.198 1664.71 602.598 1663.91 595.131 1667.25C588.465 1670.18 584.865 1674.31 572.465 1693.51C562.331 1708.98 558.198 1713.25 553.931 1712.58C549.398 1711.91 545.932 1704.85 538.065 1678.85C534.198 1666.31 521.932 1630.31 510.732 1598.85C484.865 1525.65 480.332 1511.25 466.732 1456.18C455.398 1410.05 451.398 1391.25 448.732 1372.18C447.932 1366.31 444.598 1351.25 441.398 1338.84C433.132 1306.58 432.732 1303.64 432.198 1281.38C431.932 1268.31 430.598 1254.31 428.332 1240.18C424.998 1219.64 424.865 1216.58 424.465 1154.84C424.065 1086.84 424.331 1082.04 430.865 1049.51C437.932 1014.84 460.998 935.778 470.865 912.978C484.198 882.045 502.065 852.712 540.865 798.045C566.732 761.645 591.265 733.112 621.398 704.712C663.665 664.978 716.998 626.845 761.931 604.178C769.798 600.312 780.198 594.312 784.998 590.978C797.398 582.578 801.798 580.578 821.131 574.312C830.465 571.378 844.865 565.912 853.131 562.312C878.465 551.245 879.531 550.978 897.398 551.245C909.665 551.378 915.531 550.845 922.865 548.845C927.931 547.378 942.065 544.712 954.198 542.978C969.531 540.578 979.798 538.312 988.865 535.112C1004.06 529.512 1024.2 524.978 1040.33 523.645C1055.53 522.178 1105.13 522.045 1124.33 523.378ZM1893 577.245C1900.73 583.112 1913.4 599.245 1930.33 624.445C1948.06 650.978 1961.53 674.312 1964.06 682.712C1967.26 693.378 1965.53 697.112 1948.73 714.978C1940.73 723.645 1932.46 731.645 1930.46 732.978C1925.53 736.312 1919.93 736.178 1918.06 732.845C1916.33 729.512 1917.13 726.312 1924.46 707.512C1930.06 693.378 1930.6 691.245 1930.6 680.045C1930.73 668.445 1930.46 667.512 1925.13 656.578C1918.73 643.778 1913 636.845 1908.73 636.845C1905 636.845 1899 640.045 1890.06 646.845C1886.06 649.912 1877.26 655.245 1870.6 658.712C1863.93 662.045 1854.33 667.778 1849.26 671.245C1841.4 676.578 1840.06 678.178 1840.06 681.512C1840.06 684.445 1841.13 686.178 1844.6 688.445C1852.33 693.778 1856.73 693.645 1870.73 688.312C1885.66 682.578 1889.8 682.312 1893.93 686.712C1896.73 689.645 1896.86 690.178 1895 692.845C1891.8 697.378 1876.46 709.112 1850.86 726.578C1819.4 748.045 1812.86 751.512 1804.73 751.512C1793.8 751.512 1794.86 747.645 1809.4 733.512C1819.8 723.378 1823.4 716.178 1823.4 705.245C1823.4 700.578 1822.73 699.112 1819.93 697.378C1816.73 695.112 1816.33 695.245 1807.66 699.645C1775.53 716.178 1756.73 729.245 1752.06 738.312C1747.4 747.245 1750.6 756.445 1761.66 766.178C1771.26 774.578 1780.73 776.978 1808.06 777.778C1833 778.578 1839.4 780.045 1839.4 784.978C1839.4 791.912 1827.13 798.978 1804.86 804.978C1799.26 806.445 1789.26 809.512 1782.46 811.645C1765.4 816.978 1764.73 816.712 1753.53 797.112C1750.06 790.978 1744.2 781.645 1740.33 776.445C1721.93 750.845 1691.4 703.912 1691.4 701.378C1691.4 697.245 1694.86 696.445 1703.4 698.845C1717.4 702.845 1720.06 702.845 1727.66 699.112C1731.53 697.112 1740.2 691.512 1746.73 686.445C1753.4 681.512 1783.93 660.845 1814.73 640.578C1845.53 620.312 1872.73 602.045 1875.26 600.045L1879.66 596.312L1878.86 586.978C1878.2 579.378 1878.46 577.378 1880.2 575.378C1883.4 571.778 1886.33 572.178 1893 577.245ZM1228.6 700.045C1232.86 701.645 1239.66 702.178 1254.73 702.178C1271.53 702.178 1276.33 702.578 1282.73 704.845C1287 706.312 1298.86 708.712 1309.26 710.178C1333.4 713.645 1349.13 718.712 1375.13 731.512C1459.53 772.978 1518.06 828.312 1553.4 900.045C1569.13 932.045 1576.6 957.245 1581.26 995.512C1591.8 1080.31 1583.13 1151.64 1554.46 1216.84C1550.46 1226.04 1539.13 1248.84 1529.26 1267.51C1512.33 1300.04 1505.4 1314.31 1477.13 1375.51C1442.6 1450.31 1434.06 1476.18 1434.06 1506.71C1434.06 1522.85 1432.06 1540.45 1429.26 1549.11C1426.06 1558.85 1416.06 1566.45 1388.73 1580.18C1383.26 1582.98 1373.66 1588.71 1367.4 1592.85C1344.73 1608.18 1329.93 1614.31 1271.13 1632.18C1221.13 1647.51 1189.13 1655.51 1157.4 1660.85C1108.33 1668.98 1106.06 1669.11 1046.73 1669.78C983.265 1670.58 964.198 1669.38 941.531 1663.51C933.398 1661.51 921.398 1658.71 914.731 1657.51C895.665 1654.05 880.865 1645.91 882.865 1639.91C883.398 1638.58 886.598 1634.45 890.198 1630.85C897.798 1622.98 900.731 1616.58 900.731 1607.78C900.731 1604.31 901.531 1600.31 902.465 1598.98C903.531 1597.51 908.598 1595.65 915.265 1594.05C921.398 1592.58 934.598 1587.78 944.598 1583.25C954.598 1578.85 971.931 1571.65 983.131 1567.38C1009.93 1557.11 1029.4 1546.98 1066.73 1523.51C1119.66 1490.31 1146.2 1472.45 1161.26 1459.65C1177.53 1445.91 1187.26 1438.98 1198.06 1433.78C1202.33 1431.78 1211.13 1425.11 1218.73 1418.05C1226.06 1411.38 1235.66 1403.51 1240.06 1400.58C1254.73 1390.58 1269.53 1377.11 1290.2 1355.25C1333 1309.91 1349 1290.44 1366.73 1262.31C1373.4 1251.91 1380.86 1240.98 1383.4 1238.18C1388.86 1232.31 1395.53 1229.91 1416.6 1226.84C1434.2 1224.18 1441.93 1220.84 1449.4 1212.58C1460.86 1199.78 1466.46 1182.71 1466.6 1160.18C1466.73 1148.58 1466.06 1143.64 1463.8 1136.18C1460.06 1124.58 1452.86 1112.31 1444.6 1103.64C1437.13 1095.78 1431 1092.44 1420.06 1090.18C1403.8 1086.84 1391 1077.11 1373.26 1054.71C1365.13 1044.58 1356.46 1036.84 1353.13 1036.84C1352.33 1036.84 1350.86 1035.51 1349.66 1033.78C1346.06 1028.31 1336.2 1018.98 1322.73 1008.18C1315.4 1002.44 1303.66 992.445 1296.73 985.912C1254.6 946.978 1197.93 909.912 1117.4 868.712C1038.2 828.178 982.998 808.978 945.398 808.845C939.665 808.845 932.731 807.778 927.398 806.045C919.798 803.645 916.731 803.378 903.131 804.178C887.398 805.112 879.398 804.312 879.398 802.045C879.398 799.778 889.265 789.912 897.265 784.178C910.731 774.578 923.931 767.378 956.065 751.912C991.531 734.712 1005.4 730.045 1054.06 718.445C1089.4 709.912 1107.4 707.112 1138.46 704.845C1149.4 704.045 1159.93 702.445 1164.46 700.978C1169.66 699.378 1176.6 698.445 1186.06 698.312C1193.66 698.178 1200.33 697.645 1200.73 697.245C1201.93 695.912 1222.73 698.045 1228.6 700.045ZM1983.66 786.045C2006.46 792.312 2027.53 803.912 2036.6 815.378C2038.86 818.312 2042.46 824.178 2044.46 828.445C2047.66 835.378 2048.06 837.645 2048.06 850.845C2048.06 862.712 2047.53 867.245 2044.86 874.845C2032.73 910.578 2000.73 945.112 1967 958.978C1935.4 971.778 1900.6 975.778 1868.2 970.178C1860.46 968.712 1857.13 967.112 1844.73 958.845C1827.8 947.512 1825 946.578 1818.33 949.778C1809.4 954.178 1804.46 967.778 1807.13 980.445C1809.13 990.045 1807.66 992.178 1800.06 990.712C1793.66 989.512 1784.33 980.445 1780.46 971.778C1775.66 960.978 1777.13 940.045 1783.66 927.112C1785 924.312 1789.13 918.845 1792.73 914.845C1802.46 904.045 1803.66 901.778 1805.53 888.445C1812.33 842.978 1862.86 797.245 1920.06 784.845C1936.33 781.245 1968.33 781.912 1983.66 786.045ZM2070.2 987.512C2071.66 989.378 2073.66 994.712 2074.73 999.512C2075.8 1004.31 2078.6 1016.31 2081 1026.18C2088.06 1056.44 2086.73 1072.98 2077 1073.91C2072.46 1074.31 2068.86 1071.51 2062.73 1063.11C2059 1057.91 2053.26 1056.98 2027.8 1056.84C2012.2 1056.84 2002.06 1057.64 1990.6 1059.51C1978.06 1061.64 1969.93 1062.18 1950.73 1061.91C1929.66 1061.64 1925.26 1061.91 1914.86 1064.58C1894.06 1069.78 1882.73 1078.31 1878.86 1091.64C1873.53 1109.24 1879.66 1123.64 1895.8 1131.38C1915.66 1141.11 1938.73 1143.24 1992.73 1140.31C2035 1137.91 2056.46 1134.71 2061.8 1129.91C2063.4 1128.31 2064.73 1126.58 2064.73 1125.91C2064.73 1125.24 2066.06 1121.64 2067.53 1118.04C2070.2 1111.91 2070.6 1111.51 2075.4 1111.51C2079.26 1111.51 2081.53 1112.44 2084.46 1115.51C2090.73 1121.78 2092.06 1127.38 2092.06 1147.51C2092.06 1163.11 2091.66 1166.31 2089.13 1171.78C2084.2 1182.58 2076.33 1182.04 2068.06 1170.18C2059.93 1158.71 2065.53 1159.38 1979.13 1159.24C1918.86 1159.24 1901 1158.84 1894.33 1157.38C1862.33 1150.31 1844.33 1124.31 1844.2 1084.84C1844.06 1071.24 1844.46 1068.84 1847.26 1063.24C1855 1048.04 1869.53 1034.58 1888.06 1025.38C1908.06 1015.51 1915.93 1014.04 1957.4 1012.84C1991.13 1011.78 2003.93 1010.58 2033 1005.51C2047.93 1002.84 2048.46 1002.71 2050.86 997.912C2051.93 995.778 2055 991.645 2057.66 988.712C2063.13 982.712 2066.46 982.312 2070.2 987.512ZM326.998 1066.44C329.265 1073.38 330.331 1104.98 328.865 1122.04C327.265 1139.24 324.598 1147.11 319.665 1148.44C315.131 1149.51 312.731 1147.78 308.598 1140.18C306.598 1136.71 303.931 1133.24 302.731 1132.44C299.798 1130.84 291.265 1132.04 276.065 1136.18C269.531 1137.91 259.531 1140.31 253.931 1141.51C238.065 1144.84 238.865 1143.51 238.331 1169.51C237.798 1190.98 237.931 1191.91 240.865 1194.98C244.731 1199.11 260.198 1205.38 272.998 1208.04C290.065 1211.64 288.598 1212.04 309.265 1197.78C315.931 1193.11 320.998 1193.11 324.598 1197.64C329.398 1203.78 330.465 1210.71 329.665 1232.18C328.331 1266.84 325.931 1268.31 303.398 1246.98C295.798 1239.64 290.598 1236.18 281.398 1231.78C264.331 1223.91 242.065 1215.64 213.798 1206.84C200.465 1202.71 177.131 1195.51 162.065 1190.71C132.465 1181.51 124.065 1179.51 113.531 1179.51C109.798 1179.51 104.198 1178.31 101.131 1176.98C90.1981 1171.91 78.0648 1157.91 78.0648 1150.18C78.0648 1142.84 89.2648 1137.64 118.731 1131.51C129.398 1129.38 140.331 1126.58 142.865 1125.51C148.998 1122.98 186.731 1111.51 204.065 1106.84C211.398 1104.98 230.598 1098.84 246.731 1093.51C262.865 1088.04 278.331 1083.38 281.131 1082.84C284.198 1082.31 289.131 1079.64 294.465 1075.38C309.798 1063.11 314.198 1060.71 320.065 1061.11C324.865 1061.51 325.531 1061.91 326.998 1066.44ZM1869 1204.44C1870.86 1206.58 1874.06 1210.71 1876.06 1213.78C1882.06 1223.11 1885.8 1224.18 1913.4 1224.18C1933.26 1224.18 1938.6 1224.71 1944.6 1226.71C1950.86 1228.84 1954.2 1229.11 1968.06 1228.31C1983 1227.51 1985.13 1227.78 1995.53 1230.98C2021.66 1238.84 2048.06 1235.64 2065.93 1222.04C2076.6 1213.91 2079.13 1214.84 2082.73 1228.31C2085.53 1238.71 2086.86 1272.31 2084.86 1282.71C2082.2 1297.24 2072.33 1302.84 2064.86 1294.04C2051.4 1278.04 2049.53 1277.38 2011.4 1276.31C1983.53 1275.51 1970.2 1274.44 1944.06 1270.98C1936.06 1269.78 1917.13 1268.71 1902.06 1268.44L1874.73 1267.91L1871.4 1271.51C1869.53 1273.38 1866.6 1276.84 1864.73 1279.24C1857.4 1288.31 1851.26 1284.98 1848.73 1270.31C1846.46 1257.78 1847.53 1217.78 1850.33 1211.38C1852.73 1205.78 1858.6 1200.84 1862.6 1200.84C1864.2 1200.84 1867.13 1202.44 1869 1204.44ZM279.931 1257.51C283.531 1258.58 288.331 1259.51 290.598 1259.51C300.598 1259.51 305.131 1262.04 316.598 1273.91C329.665 1287.51 335.665 1298.58 338.731 1314.84C342.198 1333.51 352.731 1402.98 352.998 1408.05C353.398 1417.91 348.331 1416.98 334.731 1404.71C327.265 1397.78 326.998 1397.65 318.998 1397.78C314.331 1397.78 302.331 1399.91 291.398 1402.58C270.198 1407.91 261.265 1409.11 220.731 1412.18C172.331 1415.91 164.465 1417.25 151.398 1423.91L140.065 1429.78L139.665 1436.58C139.265 1442.71 138.865 1443.65 135.798 1444.31C125.931 1446.85 121.131 1439.25 115.531 1412.18C113.398 1401.91 109.931 1386.05 107.931 1376.85C104.865 1362.98 104.198 1356.85 104.198 1340.84L104.065 1321.38L109.131 1311.24C114.865 1299.51 122.731 1291.78 134.065 1286.31C140.598 1283.24 142.865 1282.84 156.065 1282.98C172.865 1282.98 179.931 1285.11 194.065 1294.31C199.265 1297.64 203.265 1299.38 204.731 1298.84C206.065 1298.44 211.798 1292.04 217.531 1284.58C224.998 1274.84 229.931 1269.78 235.798 1266.04C250.598 1256.44 266.331 1253.38 279.931 1257.51ZM2032.2 1326.58C2040.2 1329.11 2051.13 1332.58 2056.6 1334.18C2074.33 1339.38 2075.93 1343.64 2070.86 1373.51C2069 1384.58 2065.26 1402.18 2062.73 1412.85C2060.06 1423.51 2057 1439.65 2055.93 1448.85C2053.53 1469.51 2051.13 1478.31 2046.06 1483.91L2042.33 1488.18L2019.8 1488.58C1996.2 1489.11 1985 1487.78 1976.86 1483.91C1970.73 1480.85 1970.6 1477.25 1976.33 1473.91C1978.6 1472.45 1987.66 1469.91 1996.33 1468.05C2005 1466.31 2014.06 1464.18 2016.46 1463.38C2025.13 1460.58 2032.73 1451.65 2032.73 1444.31C2032.73 1434.31 2006.2 1425.91 1948.06 1417.51C1934.86 1415.51 1913.53 1411.25 1900.73 1407.91C1883.26 1403.38 1873.93 1401.65 1863.66 1401.25L1850.06 1400.45L1843.8 1407.38C1837.53 1414.31 1833.93 1415.65 1828.73 1412.85C1823.4 1410.05 1823 1402.71 1826.73 1377.11C1830.73 1349.25 1833.13 1340.31 1837.4 1336.04C1843.13 1330.31 1848.6 1333.11 1855.4 1344.84C1862.2 1356.85 1863.93 1357.91 1884.86 1360.85C1894.73 1362.31 1908.73 1364.71 1916.06 1366.18C1923.4 1367.51 1938.86 1370.05 1950.46 1371.51C1962.73 1373.11 1976.6 1375.78 1983.8 1378.05C1999.8 1383.11 2030.6 1389.11 2037.4 1388.58C2041.53 1388.31 2043.13 1387.38 2044.6 1384.58C2046.46 1381.38 2046.46 1380.58 2044.2 1375.91C2039.93 1366.98 2031.13 1356.71 2015.8 1343.24C1999.13 1328.58 1997 1325.78 1999.66 1322.58C2002.2 1319.38 2015.13 1320.98 2032.2 1326.58ZM1830.6 1438.31C1832.6 1439.91 1836.86 1445.25 1840.2 1450.31C1852.06 1468.18 1870.46 1482.85 1912.73 1507.38C1925.53 1514.98 1945.93 1527.65 1958.06 1535.51C1976.33 1547.51 1982.33 1550.71 1993.4 1554.45C2004.46 1558.05 2007.66 1559.78 2012.33 1564.58C2020.06 1572.45 2026.06 1584.85 2026.06 1592.85C2026.06 1603.38 2029.66 1602.98 1936.73 1602.18C1826.06 1601.25 1803.4 1601.38 1798.73 1602.58C1796.6 1603.25 1791.66 1606.98 1787.8 1610.98C1779.93 1618.98 1776.73 1619.78 1773.4 1614.58C1766.86 1604.58 1779 1554.45 1791.4 1540.58C1795.93 1535.38 1796.73 1534.98 1800.2 1536.18C1803.13 1537.25 1804.6 1539.25 1806.73 1544.85C1809 1550.71 1810.2 1552.31 1812.73 1552.58C1814.6 1552.71 1820.86 1554.18 1826.6 1555.65C1835.93 1558.05 1839.26 1558.31 1855 1557.51L1872.86 1556.58L1875.66 1550.98C1880.73 1541.11 1886.33 1520.85 1885.4 1515.91C1884.06 1508.85 1877.8 1502.98 1863.93 1496.05C1847.53 1487.91 1841.53 1487.25 1829.13 1492.18C1817.66 1496.58 1810.2 1496.45 1807.8 1491.51C1806.86 1489.65 1806.06 1484.05 1806.06 1478.98C1806.06 1460.31 1814.46 1439.78 1823.4 1436.45C1826.6 1435.25 1826.86 1435.38 1830.6 1438.31ZM347.665 1533.51C368.998 1538.05 388.198 1552.71 398.465 1572.31C403.531 1582.18 422.198 1636.45 428.065 1658.18C431.932 1672.98 432.198 1677.65 429.265 1679.25C426.065 1680.98 422.731 1679.91 412.465 1673.91C407.531 1670.98 401.131 1668.31 398.331 1667.91C391.531 1666.98 380.198 1670.05 361.798 1677.65C342.731 1685.51 280.998 1706.31 260.731 1711.65C233.665 1718.85 228.998 1721.78 224.598 1735.38C219.931 1749.78 215.798 1752.18 209.265 1744.45C204.331 1738.58 202.731 1734.18 198.065 1715.11C195.931 1706.18 191.131 1690.45 187.398 1680.18C179.131 1657.51 172.731 1634.05 172.731 1626.71C172.731 1613.65 181.798 1600.18 198.598 1588.31C209.531 1580.71 216.465 1578.18 229.265 1577.25C239.665 1576.58 240.598 1576.71 251.665 1581.38C267.131 1588.05 268.731 1587.78 272.198 1576.85C275.798 1565.78 279.931 1559.25 288.865 1550.71C298.198 1542.05 307.265 1536.71 318.065 1533.91C328.865 1531.11 336.198 1530.98 347.665 1533.51ZM1467.4 1627.11C1477.4 1633.78 1489.8 1645.11 1503.4 1660.18C1525.53 1684.58 1534.33 1691.11 1568.46 1708.71C1597 1723.38 1612.73 1733.25 1612.73 1736.58C1612.73 1740.45 1599.93 1751.51 1580.06 1764.58C1568.33 1772.31 1555.4 1781.91 1551.13 1785.91C1537.66 1798.58 1523.66 1822.58 1513 1850.98C1505.26 1871.51 1499.4 1881.25 1488.2 1892.18C1478.46 1901.65 1469.93 1906.18 1452.73 1910.85C1445.8 1912.85 1436.73 1915.65 1432.73 1917.25C1427.53 1919.25 1422.6 1920.05 1416.06 1919.91C1411 1919.91 1395.93 1920.31 1382.73 1920.85C1352.6 1922.18 1340.46 1920.98 1323 1914.98C1312.86 1911.51 1304.73 1909.78 1291.4 1908.31C1269 1905.78 1258.2 1902.58 1248.86 1895.38C1232.06 1882.58 1229.53 1884.05 1209.4 1919.11C1204.6 1927.51 1198.46 1935.25 1187.26 1946.85C1178.86 1955.65 1167.53 1968.58 1162.2 1975.51C1147.26 1994.85 1138.86 2002.71 1120.73 2014.85C1111.53 2020.98 1098.86 2030.71 1092.46 2036.45C1086.2 2042.18 1074.73 2052.45 1067.13 2059.25C1044.06 2080.18 959.665 2140.71 943.531 2147.78C929.398 2154.18 909.798 2144.71 869.798 2111.91C804.865 2058.85 766.065 2016.18 709.531 1935.78C669.398 1878.58 642.998 1832.18 629.531 1794.85C622.731 1776.31 622.331 1775.51 620.065 1775.51C617.398 1775.51 614.998 1780.71 608.598 1799.25C601.398 1819.91 592.598 1836.85 584.598 1844.98C578.998 1850.71 577.398 1851.65 573.798 1851.25C568.331 1850.71 565.398 1845.91 562.465 1832.71C560.731 1824.98 560.198 1815.11 560.198 1788.18C560.065 1758.18 560.331 1752.45 562.465 1745.65C566.065 1733.91 572.865 1721.25 581.931 1709.25C597.798 1688.18 606.998 1682.71 619.531 1686.71C622.998 1687.91 628.198 1688.85 630.998 1688.85C633.798 1688.85 638.865 1689.78 642.331 1690.85C647.131 1692.18 658.865 1692.71 692.331 1692.98C716.331 1693.11 737.931 1692.85 740.065 1692.18C742.331 1691.65 750.998 1689.11 759.398 1686.58C770.198 1683.25 777.531 1681.78 784.198 1681.78C793.531 1681.51 793.931 1681.65 818.198 1693.78C833.531 1701.51 847.398 1707.38 855.398 1709.65C875.665 1715.38 884.731 1720.85 884.731 1727.25C884.731 1728.31 881.131 1735.65 876.731 1743.38C865.398 1763.65 859.398 1777.25 857.931 1786.05C857.265 1790.45 857.131 1804.18 857.798 1818.31C858.731 1841.51 858.998 1843.25 862.598 1850.58C864.598 1854.85 869.398 1861.51 873.265 1865.38C880.865 1873.11 909.665 1894.85 915.131 1897.11C931.131 1903.25 969.131 1899.25 990.731 1888.98C1005.8 1881.78 1019 1866.98 1029.53 1845.51C1037.93 1828.05 1040.86 1815.78 1041.66 1793.51C1042.2 1776.18 1042.06 1774.05 1038.86 1763.65C1037 1757.38 1035.4 1749.78 1035.4 1746.71C1035.4 1741.25 1035.53 1741.11 1040.46 1740.18C1043.13 1739.78 1056.46 1739.51 1070.06 1739.65C1091.8 1739.91 1096.86 1739.51 1112.73 1736.45C1122.6 1734.58 1145.4 1730.58 1163.4 1727.65C1230.06 1716.71 1242.6 1713.65 1313.4 1689.91C1369.53 1671.11 1390.86 1662.45 1423.13 1645.51C1430.6 1641.51 1439.93 1635.91 1443.8 1632.98C1454.86 1624.58 1461.26 1622.98 1467.4 1627.11ZM1773.13 1635.78C1774.73 1638.05 1775.8 1641.78 1776.06 1646.31C1776.46 1655.51 1779.66 1658.18 1795 1662.85C1813.8 1668.31 1847.26 1679.91 1894.6 1697.11C1953.26 1718.31 1959.13 1718.98 1957.66 1703.38C1956.73 1693.25 1954.73 1689.78 1939.93 1674.05C1926.73 1659.78 1921.66 1652.05 1922.33 1647.11C1922.6 1644.71 1923.8 1644.05 1928.06 1643.78C1935.8 1643.11 1942.6 1645.51 1955.4 1653.38C1961.66 1657.25 1970.2 1662.45 1974.6 1664.98C1994.6 1676.58 1994.33 1681.91 1970.46 1745.51C1965 1760.18 1958.46 1779.11 1956.2 1787.65C1948.86 1814.18 1943 1820.85 1927.13 1820.85C1917.53 1820.85 1891.93 1816.85 1881.66 1813.65C1869.53 1810.05 1866.73 1803.91 1874.2 1797.65C1879 1793.51 1880.33 1793.25 1896.73 1792.31C1911.26 1791.51 1919.93 1788.98 1929.53 1782.71C1938.2 1776.98 1940.6 1772.31 1937 1767.65C1932.46 1761.38 1920.86 1756.58 1859.53 1736.18C1826.06 1724.98 1791 1712.71 1781.66 1708.98C1771.13 1704.71 1763.66 1702.31 1762.06 1702.85C1760.6 1703.25 1757.26 1706.31 1754.6 1709.65C1749.13 1716.18 1745.66 1716.98 1740.33 1712.85C1733.53 1707.38 1734.46 1698.98 1744.73 1676.98C1748.33 1669.25 1752.2 1658.98 1753.4 1654.31C1755.53 1646.05 1759.4 1636.85 1762.46 1633.11C1764.6 1630.45 1770.2 1631.78 1773.13 1635.78ZM434.198 1727.51C456.465 1735.91 472.332 1755.51 477.532 1780.98C482.598 1806.31 475.132 1830.71 456.732 1847.91C442.865 1860.98 399.931 1881.91 376.598 1886.98C371.131 1888.18 359.798 1892.31 351.398 1896.31C342.998 1900.31 330.865 1904.98 324.465 1906.71C318.065 1908.45 310.865 1911.11 308.465 1912.45C302.998 1915.51 299.398 1922.45 299.398 1929.78C299.398 1940.31 290.731 1944.31 283.531 1937.11C281.531 1935.11 278.731 1930.45 277.398 1926.85C276.065 1923.11 270.598 1909.78 265.131 1897.11C259.798 1884.31 255.398 1872.31 255.398 1870.45C255.398 1864.85 260.598 1855.65 264.198 1854.71C266.731 1854.05 268.865 1855.25 274.865 1860.71C278.865 1864.45 283.265 1867.51 284.331 1867.51C285.398 1867.51 302.331 1862.18 321.931 1855.65C341.398 1849.11 366.465 1840.98 377.398 1837.51C406.198 1828.58 417.931 1822.58 429.532 1810.98C437.265 1803.25 439.532 1800.05 441.532 1793.78C443.532 1787.11 443.665 1785.25 442.332 1780.05C440.465 1773.25 435.932 1766.05 427.132 1756.45L421.398 1750.18L400.065 1753.38C366.598 1758.58 363.265 1759.65 301.531 1784.31C262.731 1799.78 261.531 1800.58 256.198 1816.58C252.865 1826.31 248.465 1832.85 245.265 1832.85C240.865 1832.85 231.798 1815.78 225.531 1795.78C220.731 1780.45 219.798 1771.25 222.598 1766.85C225.931 1761.78 230.865 1762.58 240.731 1769.51C245.398 1772.85 251.131 1775.78 253.531 1776.31C262.465 1777.91 268.865 1775.78 363.398 1738.85C389.398 1728.71 397.265 1726.05 407.398 1724.31C413.398 1723.25 427.532 1724.85 434.198 1727.51ZM1725.53 1755.25C1727.8 1756.71 1730.73 1763.25 1733.26 1771.91C1735.93 1781.11 1741 1785.38 1755.8 1790.98C1761.13 1792.98 1772.6 1797.78 1781.4 1801.65C1790.2 1805.38 1813.66 1814.58 1833.4 1822.05C1853.26 1829.51 1875.4 1838.58 1882.73 1842.18C1898.46 1850.05 1904.06 1850.71 1911.66 1845.51C1922.6 1838.05 1930.06 1840.31 1930.06 1850.98C1930.06 1857.51 1919.66 1886.18 1912.06 1900.71C1906.46 1911.25 1899.66 1918.18 1894.86 1918.18C1891.13 1918.18 1888.2 1912.18 1886.73 1901.25C1885.4 1890.85 1880.6 1887.25 1857.4 1879.11C1850.06 1876.58 1828.73 1867.78 1810.06 1859.65C1791.4 1851.38 1767.66 1841.65 1757.4 1837.91C1747.13 1834.31 1733.53 1828.85 1727.13 1825.91C1714.06 1820.05 1712.86 1820.18 1706.86 1828.18C1704.2 1831.51 1702.2 1832.85 1699.53 1832.85C1686.86 1832.85 1689.13 1813.78 1705.93 1778.85C1715.93 1758.05 1720.86 1752.05 1725.53 1755.25ZM1572.2 1799.78C1571.66 1803.65 1567.13 1819.11 1562.06 1834.18C1557 1849.25 1551.66 1866.31 1550.2 1872.31C1548.73 1878.18 1546.46 1885.38 1545.26 1888.31C1541.4 1897.65 1531.66 1911.38 1522.33 1920.58C1499.26 1943.65 1477.4 1955.25 1446.86 1960.71C1438.2 1962.31 1426.86 1965.11 1421.66 1966.98C1405.8 1972.71 1389.13 1972.85 1332.2 1967.38C1324.2 1966.71 1308.46 1963.38 1292.86 1959.38C1278.46 1955.65 1264.06 1952.45 1260.73 1952.45C1247 1952.31 1233.8 1964.85 1205.53 2005.11C1196.6 2018.05 1186.86 2028.05 1164.86 2047.38C1154.2 2056.85 1140.06 2070.18 1133.66 2077.25C1119.26 2092.85 1109 2101.65 1075.93 2125.78C1038.6 2153.25 980.865 2192.05 950.598 2209.91C935.798 2218.71 929.931 2217.51 904.598 2200.71C897.531 2196.05 885.398 2188.31 877.398 2183.51C821.531 2149.65 760.598 2090.58 710.465 2021.51C680.065 1979.51 638.731 1912.31 628.065 1887.51C622.865 1875.25 617.665 1866.71 614.465 1865.11C610.465 1862.98 606.731 1865.51 598.731 1875.65C589.665 1887.38 584.865 1890.85 573.931 1893.65C561.665 1896.85 548.332 1893.91 541.798 1886.58C538.732 1883.25 535.398 1874.98 535.398 1870.85C535.398 1865.38 539.398 1849.38 541.398 1846.71C543.132 1844.31 543.265 1844.31 545.932 1846.71C547.398 1848.05 550.198 1854.18 552.065 1860.31C555.131 1870.31 556.065 1871.91 560.731 1874.98C564.198 1877.38 567.798 1878.45 571.798 1878.45C584.065 1878.71 592.465 1869.65 607.798 1839.91C612.731 1830.18 617.398 1821.91 618.065 1821.51C620.065 1820.31 629.931 1832.85 637.398 1846.18C641.398 1853.11 648.198 1867.11 652.598 1877.11C662.598 1899.65 667.265 1907.51 687.931 1935.51C696.865 1947.65 707.665 1962.58 712.065 1968.85C754.998 2030.98 792.465 2070.85 850.731 2116.18C878.731 2138.05 916.865 2161.38 929.931 2164.85C939.798 2167.38 945.398 2164.98 979.131 2144.05C1016.73 2120.45 1026.6 2113.25 1045.8 2095.11C1065.26 2076.85 1081.53 2063.78 1094.73 2056.05C1115.4 2044.05 1120.33 2040.05 1143.4 2016.71C1156.2 2003.78 1173.93 1986.71 1182.6 1978.71C1199.8 1963.11 1210.33 1950.58 1218.6 1936.58C1224.06 1927.11 1234.06 1914.98 1238.06 1912.85C1239.93 1911.91 1242.06 1912.05 1245.66 1913.51C1266.86 1921.65 1305.26 1930.18 1333.26 1932.85C1341.66 1933.65 1351.26 1935.65 1357.66 1937.78C1367.13 1940.98 1369.93 1941.38 1387.4 1941.38C1415.13 1941.25 1436.33 1937.11 1466.73 1925.51C1490.6 1916.31 1506.33 1904.05 1516.46 1886.71C1519.26 1881.65 1524.86 1869.65 1528.73 1860.18C1542.2 1826.45 1553 1806.98 1563.13 1797.78C1571.26 1790.58 1573.26 1791.11 1572.2 1799.78ZM1736.73 1874.85C1800.46 1884.45 1861.26 1929.78 1872.06 1975.78C1876.06 1993.11 1873.13 2014.85 1864.6 2029.65C1856.06 2044.58 1839.93 2056.45 1820.73 2061.65C1808.46 2065.11 1776.46 2065.11 1760.73 2061.65C1733.26 2055.78 1702.86 2042.58 1681.66 2027.38C1668.06 2017.65 1648.73 1997.91 1642.2 1987.11C1633.53 1972.31 1630.86 1964.18 1630.33 1948.85C1629.8 1936.31 1630.2 1933.65 1633.26 1924.45C1646.6 1884.71 1684.06 1866.85 1736.73 1874.85ZM511.398 1878.05C517.932 1882.71 524.865 1893.91 532.865 1912.85C537.398 1923.51 544.865 1939.11 549.398 1947.51C562.731 1971.91 570.731 1988.71 574.865 2000.05L578.465 2010.45L575.265 2012.98C570.598 2016.58 566.331 2016.05 557.798 2010.71C553.531 2008.18 548.065 2005.65 545.665 2005.25C539.932 2004.45 527.398 2009.25 506.332 2020.31C497.265 2025.25 479.532 2032.98 466.865 2037.78C454.332 2042.45 439.665 2048.71 434.332 2051.65C429.132 2054.58 416.331 2059.78 406.065 2063.38C378.331 2072.98 374.065 2076.45 374.065 2090.05C374.065 2094.98 373.398 2096.98 370.865 2099.38C367.531 2102.45 367.531 2102.45 363.265 2100.05C358.598 2097.25 334.731 2059.25 328.998 2045.51C324.865 2035.51 324.465 2024.85 327.931 2020.98C329.398 2019.38 331.265 2018.18 332.198 2018.18C333.131 2018.18 338.465 2020.58 344.065 2023.51C349.665 2026.45 355.398 2028.85 356.865 2028.85C361.798 2028.85 392.198 2016.71 405.398 2009.51C427.798 1997.11 436.465 1993.38 463.132 1984.31C499.132 1972.05 518.332 1961.78 521.932 1953.25C524.865 1946.05 518.865 1933.78 506.865 1922.45C497.132 1913.25 491.265 1910.85 470.598 1907.51C452.598 1904.58 444.332 1901.78 440.332 1897.11C433.132 1889.11 445.665 1882.05 474.865 1877.51C498.732 1873.91 505.665 1874.05 511.398 1878.05ZM1610.6 2007.65C1615.8 2010.05 1617.53 2015.65 1614.86 2022.18C1613.4 2026.05 1613.13 2028.31 1614.06 2030.85C1615.66 2035.11 1626.06 2041.78 1643.26 2049.38C1664.6 2058.98 1725.66 2089.78 1737.53 2096.98C1757 2108.71 1765.66 2112.18 1775.4 2112.18C1783.13 2112.18 1785 2111.51 1791.93 2107.11C1801.4 2101.25 1806.46 2100.71 1809.53 2105.51C1813.53 2111.65 1812.2 2118.71 1804.6 2132.05C1795.53 2147.78 1792.46 2151.78 1786.2 2155.91C1778.06 2161.25 1769.13 2163.25 1747.93 2164.18C1736.33 2164.71 1716.06 2166.85 1699.4 2169.51C1681.53 2172.31 1663.66 2174.18 1652.06 2174.58C1634.06 2175.25 1620.73 2177.38 1620.73 2179.51C1620.73 2186.58 1693.13 2222.58 1711 2224.45C1717 2225.11 1718.86 2224.71 1725 2221.25C1734.2 2216.05 1738.6 2215.11 1744.2 2216.85C1753 2219.78 1752.2 2227.91 1740.46 2251.78C1731.26 2270.71 1727 2275.91 1720.6 2275.91C1715.26 2275.91 1713.13 2273.11 1712.06 2264.98C1710.46 2252.58 1709 2249.25 1701.26 2242.45C1692.6 2234.71 1675.26 2225.38 1648.73 2214.45C1622.46 2203.51 1524.73 2155.25 1521.4 2151.65C1519.53 2149.38 1519.13 2148.18 1520.2 2146.45C1522.2 2143.25 1533 2139.91 1546.2 2138.31C1566.46 2135.78 1595.8 2132.98 1610.06 2132.18C1617.8 2131.65 1631.53 2130.45 1640.73 2129.51C1649.93 2128.45 1665.26 2126.98 1674.73 2126.18C1684.33 2125.38 1699 2124.18 1707.53 2123.51C1723.66 2122.18 1730.06 2120.58 1730.06 2118.05C1730.06 2112.71 1713.53 2102.98 1683.13 2090.31C1671.13 2085.38 1653.93 2076.98 1644.86 2071.78C1626.73 2061.25 1616.6 2056.98 1607.4 2055.91C1602.33 2055.38 1599.8 2055.91 1592.86 2059.38C1573.13 2069.38 1568.6 2059.25 1581.53 2033.38C1588.33 2019.65 1599.66 2007.65 1607 2006.18C1607.13 2006.18 1608.73 2006.85 1610.6 2007.65ZM576.865 2053.38C582.331 2054.45 590.065 2056.85 594.065 2058.85C614.865 2069.38 632.998 2100.31 636.998 2132.18C638.331 2142.58 638.198 2146.18 636.331 2155.51C628.598 2194.98 590.332 2234.05 545.665 2248.18C502.598 2261.91 444.998 2248.98 419.265 2219.78C409.131 2208.18 402.065 2190.31 402.065 2175.91C402.065 2172.18 401.398 2165.78 400.598 2161.91C399.265 2155.78 397.931 2153.78 390.598 2146.71C385.931 2142.18 382.065 2137.78 382.065 2136.85C382.065 2135.91 384.465 2132.71 387.531 2129.91C396.865 2121.11 441.532 2100.85 451.798 2100.85C462.465 2100.85 457.798 2113.38 440.198 2132.45C429.132 2144.45 428.065 2147.25 428.065 2163.51C428.065 2180.18 430.998 2188.45 439.665 2196.31C449.398 2204.98 455.265 2206.85 473.398 2206.85C488.332 2206.71 490.332 2206.45 503.532 2201.91C528.998 2193.11 567.665 2172.05 578.331 2161.25C594.465 2144.71 597.931 2121.25 587.398 2099.91C577.131 2079.11 552.598 2067.65 530.598 2073.38C516.198 2077.11 503.932 2075.65 505.532 2070.45C508.332 2061.78 515.798 2056.98 531.532 2053.65C542.465 2051.25 563.931 2051.11 576.865 2053.38Z" fill="white"/>
<path d="M822.062 133.779C810.062 135.779 756.862 160.846 743.796 170.712C711.796 194.846 693.262 230.046 688.462 276.179C686.462 295.512 688.329 314.312 694.596 336.979C710.062 393.246 735.262 427.646 776.062 448.179C789.129 454.846 808.996 460.979 810.996 458.979C812.729 457.379 806.196 449.379 794.196 438.312C778.596 423.912 770.462 412.579 759.396 389.512C747.129 364.179 743.129 348.446 738.596 306.846C736.062 283.246 736.729 271.112 741.529 254.579C748.062 231.779 764.596 201.512 778.596 186.446C790.996 173.246 808.596 158.979 820.729 152.712C832.196 146.712 840.729 139.912 840.729 136.579C840.729 133.646 831.262 132.179 822.062 133.779Z" fill="white"/>
<path d="M1260.73 292.845C1257.27 297.645 1241.53 330.179 1235 346.179C1225.27 369.645 1216.87 402.179 1211.8 436.179C1209.93 448.712 1209.4 460.712 1209.4 491.512C1209.4 526.845 1209.8 533.645 1213 558.845C1215.13 574.179 1218.2 600.179 1219.93 616.445C1223 645.512 1225.4 655.245 1229.53 656.445C1232.2 657.379 1232.73 651.379 1232.73 614.445C1232.73 582.445 1232.33 576.312 1229.93 564.445C1227.67 553.379 1227.27 548.179 1227.93 536.845C1228.33 529.112 1229.27 510.179 1229.93 494.845C1231.13 469.512 1231.67 465.112 1235.93 448.445C1244.73 414.579 1260.07 378.312 1276.73 352.312C1288.07 334.579 1288.47 331.379 1281.13 318.312C1278.47 313.512 1274.73 304.979 1272.87 299.512C1268.73 287.645 1265.67 285.912 1260.73 292.845Z" fill="white"/>
<path d="M1625.4 417.912C1620.73 420.712 1614.06 429.912 1614.06 433.379C1614.06 434.579 1618.46 440.312 1623.93 446.046C1632.86 455.379 1634.2 457.512 1637.53 467.646C1641 478.046 1641.26 480.446 1641.26 501.512L1641.4 524.179L1635.66 541.912C1624.46 576.579 1625.13 585.512 1638.2 578.846C1647.53 573.912 1663.26 545.512 1666.73 526.979C1669.26 513.646 1669.26 486.312 1666.73 470.446C1662.46 444.179 1655.4 430.579 1640.2 419.379C1634.2 414.846 1630.86 414.579 1625.4 417.912Z" fill="white"/>
<path d="M459.395 438.979C435.795 442.446 429.795 448.712 436.995 463.112C438.595 466.312 448.061 478.712 458.061 490.579C481.795 518.979 518.595 565.779 528.861 580.446C538.728 594.712 542.595 598.846 547.528 600.846C552.728 603.112 557.795 600.846 564.595 593.512C577.661 579.246 581.261 559.646 574.195 539.246C563.528 508.179 530.461 466.979 502.995 450.446C489.928 442.579 470.461 437.512 459.395 438.979Z" fill="white"/>
<path d="M297.929 594.179C291.529 597.646 289.529 600.312 289.662 605.646C289.796 611.779 296.862 620.979 308.329 630.179C313.262 634.179 322.596 642.046 328.996 647.646C345.796 662.446 353.396 665.246 358.996 659.112C365.129 652.446 366.729 645.112 364.062 634.979C361.662 625.779 357.529 619.112 349.929 612.179C330.596 594.446 310.596 587.512 297.929 594.179Z" fill="white"/>
<path d="M229.264 817.512C227.797 820.978 232.33 828.445 241.397 837.645C250.597 846.978 258.464 851.512 265.264 851.512C269.53 851.512 270.597 850.712 274.73 844.445C280.597 835.512 281.93 829.112 278.464 825.912C275.664 823.378 251.664 817.378 238.864 816.045C231.264 815.245 230.064 815.512 229.264 817.512Z" fill="white"/>
<path d="M881.401 842.979C879.934 843.246 875.401 844.179 871.401 844.979C867.401 845.779 854.734 850.179 843.401 854.846C832.068 859.512 817.401 864.846 810.734 866.846C791.801 872.579 779.668 879.512 766.201 892.179C756.734 901.112 749.934 910.179 737.801 930.179C732.334 939.379 722.868 954.979 716.734 964.846C685.534 1016.05 675.401 1049.51 685.268 1068.71C687.534 1073.11 696.334 1080.85 699.134 1080.85C700.068 1080.85 703.001 1077.25 705.801 1072.85C716.734 1054.85 719.001 1052.05 726.734 1045.78C735.534 1038.71 767.001 1022.71 780.734 1018.31C785.534 1016.85 796.734 1014.05 805.801 1012.18C826.468 1008.05 830.334 1006.18 837.668 996.979C844.868 987.912 859.134 958.979 869.934 932.179C874.334 921.112 881.134 904.979 885.134 896.179C897.801 868.046 902.734 850.446 899.134 845.912C897.401 843.779 886.468 841.912 881.401 842.979ZM871.134 870.579C875.001 873.646 873.268 878.046 849.134 928.846C845.134 937.246 838.868 952.312 835.268 962.179C825.401 989.112 820.201 994.179 802.068 994.179C793.934 994.179 789.001 995.246 776.068 999.646C751.801 1007.78 740.468 1013.78 727.401 1025.65C715.668 1036.31 705.534 1043.51 702.334 1043.51C701.001 1043.51 700.734 1042.45 701.401 1039.11C702.868 1031.91 709.134 1019.51 727.134 988.579C736.601 972.179 747.534 952.846 751.401 945.512C760.734 927.912 770.468 913.912 777.934 907.379C792.601 894.446 816.868 881.246 838.734 874.179C858.334 867.912 866.601 866.979 871.134 870.579Z" fill="white"/>
<path d="M928.728 849.644C924.328 852.711 923.794 853.778 917.261 869.511C914.328 876.844 907.661 891.778 902.461 902.844C897.261 913.778 890.194 929.378 886.728 937.511C883.261 945.511 874.994 962.444 868.461 975.111C851.661 1007.51 852.328 1009.51 879.394 1008.04C890.461 1007.51 898.328 1007.91 907.394 1009.38C914.328 1010.58 925.794 1011.51 932.728 1011.51C948.728 1011.51 962.328 1013.78 997.394 1022.04C1012.86 1025.78 1034.46 1030.31 1045.39 1032.18C1072.06 1036.71 1097.26 1043.38 1152.59 1060.18C1247.26 1089.11 1279.39 1100.31 1318.33 1118.31C1338.46 1127.64 1345.93 1128.98 1350.19 1123.64C1357.93 1114.18 1348.33 1090.31 1326.99 1066.18C1304.46 1040.98 1256.73 1003.11 1202.06 967.111C1172.19 947.511 1153.26 936.711 1112.06 915.111C1051.79 883.644 1028.33 873.244 983.394 858.044C958.728 849.778 953.128 848.311 943.394 847.911C934.061 847.378 931.394 847.778 928.728 849.644ZM968.328 871.378C1015.93 888.711 1059.26 908.178 1094.46 928.044C1120.33 942.444 1186.19 980.844 1200.73 989.911C1247.26 1018.84 1313.66 1073.11 1324.06 1090.84C1328.33 1098.04 1329.39 1102.98 1326.99 1103.91C1322.99 1105.38 1312.06 1101.91 1295.13 1093.64C1282.33 1087.38 1272.33 1083.64 1259.39 1080.18C1249.53 1077.64 1237.79 1073.64 1233.39 1071.24C1211.66 1060.04 1206.73 1058.04 1188.73 1053.51C1178.06 1050.71 1163.39 1046.18 1156.06 1043.24C1147.53 1039.64 1135.13 1036.31 1120.59 1033.38C1107.13 1030.71 1086.99 1025.24 1069.39 1019.51C1031.53 1007.11 1027.39 1006.18 1005.39 1004.84C992.461 1004.18 982.461 1002.71 972.728 1000.18C960.061 996.844 956.061 996.444 930.994 996.044C903.528 995.644 891.128 994.311 886.861 991.111C884.861 989.644 884.861 988.844 887.394 981.511C888.861 977.111 895.128 962.978 901.394 950.178C907.928 936.444 915.394 918.311 919.394 905.911C926.994 882.711 933.394 870.978 939.928 868.044C945.528 865.511 955.394 866.578 968.328 871.378Z" fill="white"/>
<path d="M815.401 1033.51C797.667 1036.18 781.001 1041.24 767.534 1047.91C755.401 1054.04 720.334 1075.24 709.801 1082.84L703.534 1087.38L681.401 1154.44C655.001 1234.04 655.934 1227.24 668.734 1252.84C673.267 1262.04 681.001 1276.58 685.667 1285.38C690.467 1294.04 697.001 1307.51 700.201 1315.38C703.534 1323.11 708.201 1332.71 710.734 1336.44C719.801 1350.18 738.867 1361.64 772.067 1373.38C781.667 1376.84 798.467 1383.11 809.401 1387.38C842.201 1400.18 862.867 1403.91 884.467 1400.84C896.734 1399.24 953.401 1383.38 987.534 1372.04C1008.33 1365.11 1017.27 1361.11 1055.4 1341.38C1063.8 1336.98 1084.6 1327.51 1101.4 1320.31C1149.53 1299.64 1216.6 1265.51 1250.07 1244.44C1267.8 1233.38 1281.8 1225.91 1298.07 1218.98C1305.8 1215.78 1319 1209.11 1327.4 1204.31C1347.8 1192.44 1351.53 1191.51 1375.8 1191.51C1397.93 1191.51 1403.67 1190.31 1410.73 1184.58C1424.07 1173.51 1425.13 1152.98 1413.13 1139.78C1408.2 1134.44 1407.67 1134.18 1396.2 1132.71C1380.6 1130.71 1374.33 1131.78 1361.27 1138.31C1345.53 1146.18 1341.53 1145.91 1308.07 1134.98C1293.4 1130.18 1266.73 1121.91 1248.73 1116.71C1230.73 1111.51 1206.2 1103.51 1194.07 1098.84C1168.87 1089.24 1157.53 1085.91 1124.07 1078.18C1110.87 1075.24 1091.4 1070.31 1080.73 1067.51C1070.07 1064.58 1054.2 1060.71 1045.4 1058.84C1027 1054.84 928.201 1038.18 903.401 1034.84C880.467 1031.64 832.067 1030.98 815.401 1033.51ZM865.534 1052.98C881.267 1055.11 889.001 1055.51 902.734 1054.84C938.467 1053.11 984.067 1059.11 1037.4 1072.31C1059.27 1077.78 1153.93 1104.44 1169.4 1109.51C1175.27 1111.51 1192.33 1117.78 1207.27 1123.78C1234.07 1134.31 1255.8 1140.84 1263.93 1140.84C1269.93 1140.84 1307.67 1154.44 1320.87 1161.38C1327 1164.58 1333.8 1167.64 1335.8 1168.04C1341.67 1169.38 1349.8 1166.58 1362.6 1158.58C1380.07 1147.51 1386.07 1145.78 1394.6 1149.38C1400.87 1152.04 1403.13 1158.04 1400.6 1165.38C1398.2 1172.31 1396.2 1172.98 1368.07 1176.71C1338.33 1180.58 1318.07 1187.78 1286.2 1206.04C1276.2 1211.78 1261.13 1220.18 1252.73 1224.84C1244.33 1229.38 1229.53 1237.91 1219.93 1243.64C1198.6 1256.44 1181.53 1264.71 1175.67 1265.11C1171.27 1265.51 1171.13 1265.24 1168.87 1258.18C1165.67 1247.91 1159.53 1236.98 1149 1222.58C1144.07 1215.78 1136.47 1205.24 1132.07 1199.24C1125.53 1190.18 1124.2 1187.51 1124.2 1183.24C1124.47 1177.24 1131.93 1160.84 1142.07 1144.84C1152.33 1128.44 1158.07 1118.58 1158.07 1117.11C1158.07 1115.78 1141.4 1109.24 1133.27 1107.51C1127 1106.04 1120.73 1108.04 1116.2 1112.71C1114.2 1114.84 1103.93 1131.11 1093.27 1148.98C1073 1183.38 1072.33 1184.84 1075.53 1195.51C1078.2 1204.31 1114.87 1254.71 1129.8 1269.91C1135 1275.38 1139.4 1280.71 1139.4 1281.64C1139.4 1288.71 1085.13 1313.51 1081 1308.44C1080.33 1307.51 1077 1301.38 1073.67 1294.84C1070.33 1288.18 1057.53 1268.04 1045.13 1249.91C1016.33 1207.51 1013.67 1202.58 1014.33 1192.58C1014.73 1187.64 1016.2 1182.44 1018.87 1177.24C1021.13 1172.98 1029.53 1156.58 1037.67 1140.84C1045.8 1125.11 1054.47 1107.24 1056.87 1101.24C1061.13 1090.44 1061.27 1090.18 1058.6 1088.31C1053.4 1084.44 1023.13 1078.18 1009.13 1078.18C998.334 1078.18 993.267 1085.38 982.067 1116.18C978.601 1125.91 973.401 1137.91 970.334 1142.98C957.401 1165.24 946.067 1191.78 946.067 1199.64C946.067 1203.64 953.134 1215.51 975.401 1248.84C985.401 1263.91 996.734 1281.51 1000.6 1288.04C1004.6 1294.44 1010.73 1303.24 1014.2 1307.64C1023 1318.04 1031.4 1330.18 1031.4 1332.31C1031.4 1335.24 1020.73 1340.71 1006.73 1345.11C999.401 1347.38 985.001 1352.98 974.734 1357.51C954.601 1366.44 943.934 1370.18 929.401 1373.51C924.334 1374.71 910.201 1378.31 898.201 1381.78C877.534 1387.51 875.667 1387.78 864.201 1387.11C856.334 1386.71 848.734 1385.24 842.734 1383.11C819.534 1374.98 792.601 1363.51 766.734 1350.84C733.934 1334.84 729.667 1331.24 719.934 1312.31C716.467 1305.64 705.534 1285.51 695.667 1267.64C677.934 1235.64 677.534 1234.98 677.667 1226.98C677.667 1221.24 679.001 1215.51 681.934 1207.51C689.001 1188.71 711.001 1123.51 713.401 1114.18C714.601 1109.38 716.601 1103.91 717.801 1101.91C719.667 1098.71 731.934 1088.84 746.867 1078.44C755.401 1072.58 799.001 1054.98 813.401 1051.64C822.601 1049.51 845.001 1050.04 865.534 1052.98Z" fill="white"/>
<path d="M876.066 1065.38C873.933 1066.31 870.733 1068.58 869.266 1070.31C865.933 1073.91 844.2 1124.85 832.733 1155.51C828.466 1166.85 822.733 1181.25 819.933 1187.51C817.266 1193.65 814.733 1201.65 814.333 1205.11C813.8 1210.98 814.466 1212.58 825 1231.11C831.266 1241.91 840.066 1257.78 844.733 1266.18C849.266 1274.58 861.933 1296.45 872.733 1314.85C883.533 1333.11 894.066 1351.51 896.2 1355.51C902.333 1367.11 903.8 1367.51 925.133 1362.45C946.066 1357.51 956.733 1353.78 960.066 1350.18C965 1344.85 958.066 1327.38 943 1307.11C938.2 1300.71 929.933 1287.25 924.6 1277.11C919.4 1267.11 910.6 1251.25 905.133 1242.05C891.666 1218.98 888.466 1210.71 887.666 1197.38C887.133 1187.78 887.533 1185.65 890.466 1178.98C892.333 1174.98 895.8 1168.85 898.066 1165.51C903.933 1156.98 908.6 1146.18 917.133 1121.51C921.133 1109.78 926.333 1095.65 928.6 1089.91C933.933 1076.85 934.066 1069.78 929.133 1066.58C926.066 1064.58 921.933 1064.18 902.733 1063.78C885.666 1063.51 879.133 1063.91 876.066 1065.38Z" fill="white"/>
<path d="M781.663 1074.18C772.33 1077.78 761.397 1082.58 757.397 1084.84C747.263 1090.58 740.063 1099.24 737.93 1107.91C736.33 1115.11 714.997 1179.91 706.73 1202.84C699.663 1222.44 700.197 1226.04 714.197 1254.84C720.197 1267.24 729.263 1287.11 734.33 1298.84C748.73 1332.58 751.53 1335.64 775.663 1345.51C781.663 1347.91 793.13 1353.24 800.863 1357.24C816.463 1365.24 829.797 1370.18 835.663 1370.18C838.73 1370.18 839.397 1369.64 839.397 1366.84C839.397 1360.84 833.93 1348.84 824.597 1334.71C819.397 1326.84 809.13 1309.11 801.797 1294.98C794.33 1280.98 783.93 1262.44 778.463 1253.91C763.663 1230.71 760.463 1220.04 763.397 1205.38C764.197 1200.98 773.663 1171.51 784.197 1139.91C794.73 1108.18 803.797 1079.78 804.197 1076.84C805.13 1071.51 803.397 1067.38 800.197 1067.64C799.397 1067.64 790.997 1070.58 781.663 1074.18Z" fill="white"/>
<path d="M1311.53 1238.18C1308.46 1240.45 1303.8 1243.25 1301 1244.58C1298.33 1245.78 1292.6 1249.51 1288.46 1252.85C1284.33 1256.18 1274.73 1262.58 1267.13 1267.11C1245.66 1279.78 1169 1318.05 1146.06 1327.51C1134.73 1332.18 1105 1345.25 1080.06 1356.58C1029.93 1379.25 1002.86 1390.85 976.329 1400.71C955.262 1408.58 906.329 1423.51 901.529 1423.51C895.129 1423.51 884.462 1426.45 881.929 1428.98C876.996 1433.91 879.529 1450.71 889.529 1478.85C892.196 1486.18 895.796 1498.71 897.529 1506.85C906.729 1547.65 911.129 1552.05 931.662 1540.85C936.996 1537.91 948.462 1531.91 957.262 1527.38C1038.06 1486.05 1117.13 1437.11 1166.73 1397.65C1174.06 1391.78 1187.4 1381.51 1196.2 1374.85C1209.26 1365.11 1221.8 1353.25 1259.53 1314.85C1313.66 1259.78 1326.06 1245.38 1326.06 1237.11C1326.06 1232.58 1318.6 1233.11 1311.53 1238.18ZM1248.73 1299.51C1248.73 1300.18 1244.73 1305.38 1239.8 1311.11C1212.73 1342.71 1190.86 1360.98 1130.06 1402.85C1114.33 1413.65 1092.86 1428.71 1082.6 1436.31C1057.4 1454.71 1044.73 1462.05 988.062 1491.25C937.262 1517.38 928.596 1521.25 924.196 1519.51C919.929 1518.05 915.662 1510.85 914.062 1502.45C913.262 1498.31 910.862 1486.98 908.729 1477.25C902.329 1448.98 903.129 1444.31 915.929 1438.31C920.462 1436.18 927.129 1433.65 930.729 1432.45C934.462 1431.38 959.929 1423.11 987.396 1414.05C1030.2 1400.05 1040.2 1396.31 1056.73 1387.78C1067.4 1382.31 1082.73 1375.51 1090.73 1372.71C1098.86 1369.78 1112.86 1363.25 1122.06 1358.31C1145 1345.65 1152.2 1342.18 1171.4 1334.31C1180.6 1330.58 1201.13 1320.85 1217.26 1312.85C1233.26 1304.71 1247 1298.18 1247.53 1298.18C1248.2 1298.18 1248.73 1298.71 1248.73 1299.51Z" fill="white"/>
<path d="M717.134 1372.31C719.267 1385.24 734.067 1408.71 750.867 1425.64C756.867 1431.64 764.201 1440.04 767.134 1444.31C773.534 1453.91 838.601 1516.98 853.401 1528.18C859.267 1532.58 867.667 1539.24 872.201 1542.98C881.667 1550.84 887.134 1552.84 889.667 1549.38C892.334 1545.78 891.801 1538.04 888.067 1528.31C886.201 1523.38 884.734 1518.04 884.734 1516.31C884.734 1514.71 883.267 1509.78 881.534 1505.38C877.001 1494.18 872.067 1476.18 868.734 1458.18C864.067 1432.71 862.467 1431.38 821.401 1418.71C799.667 1412.04 792.201 1408.98 768.734 1397.11C753.401 1389.24 736.867 1379.64 731.001 1375.38C718.601 1366.04 716.067 1365.51 717.134 1372.31ZM789.801 1422.98C797.267 1425.11 828.334 1438.84 837.667 1444.31C849.667 1451.24 857.667 1469.91 859.001 1494.04L859.801 1507.78L856.601 1506.18C851.267 1503.24 837.667 1491.24 808.201 1463.64C780.601 1437.91 772.734 1428.71 772.734 1422.58C772.734 1419.64 773.134 1419.51 777.801 1420.18C780.467 1420.71 785.934 1421.91 789.801 1422.98Z" fill="white"/>
<path d="M957.802 1731.51C943.402 1735.78 922.202 1761.11 911.669 1786.31C908.602 1793.78 908.202 1796.71 908.202 1810.18C908.069 1823.51 908.469 1826.45 911.269 1832.45C915.135 1840.98 922.869 1848.45 929.402 1849.65C932.069 1850.05 938.602 1850.18 943.802 1849.91C961.802 1848.71 978.335 1837.11 986.602 1819.65L990.735 1810.85V1784.85C990.602 1764.05 990.202 1757.38 988.335 1751.11C983.535 1735.51 971.002 1727.51 957.802 1731.51Z" fill="white"/>
<path d="M1195.4 714.979C1170.86 717.246 1149.4 721.912 1138.06 727.512C1134.06 729.512 1126.06 733.112 1120.46 735.512C1104.33 742.179 1097.53 752.179 1106.06 756.446C1111 758.979 1123.93 758.579 1138.6 755.512C1161.4 750.846 1187.8 747.512 1202.06 747.512C1217.13 747.512 1222.73 749.112 1222.73 753.512C1222.73 757.512 1215.8 760.446 1203.4 761.912C1193.53 763.112 1191.66 763.779 1189 766.979C1186.46 769.912 1185.93 771.646 1186.46 775.912C1187.26 781.912 1189.66 784.046 1198.6 786.846C1208.46 789.779 1223.8 789.246 1252.06 784.846C1282.2 780.046 1297.53 779.779 1310.6 783.512C1333.4 790.046 1348.06 797.512 1352.73 805.112C1357.93 813.512 1357.8 813.512 1326.06 813.512C1294.86 813.512 1291.4 814.179 1286.6 821.512C1281.4 829.512 1287.93 836.446 1308.2 844.712C1348.33 860.979 1375.66 876.979 1394.2 895.512C1407.53 908.579 1416.73 922.046 1426.73 942.846C1438.86 968.179 1443.66 985.246 1445.4 1008.85C1447.53 1039.78 1453.53 1053.25 1463 1048.31C1472.6 1043.38 1479.26 1031.51 1480.33 1017.65C1481.26 1005.78 1479.13 994.712 1470.06 964.312C1463.26 941.646 1460.6 927.512 1463 927.512C1465.53 927.512 1473.13 934.179 1479 941.646C1486.73 951.779 1499.66 978.179 1504.2 993.512C1507.13 1003.51 1507.8 1008.98 1508.33 1025.51C1508.86 1042.71 1508.46 1048.45 1505.53 1066.18C1502.2 1085.91 1501.66 1087.51 1493.4 1104.18C1479.26 1132.58 1477.93 1143.65 1487.4 1153.11C1491.8 1157.51 1496.2 1157.91 1507.4 1154.85C1518.86 1151.78 1518.6 1151.65 1517.66 1161.65C1515.8 1180.71 1505.8 1209.51 1489.8 1241.51C1485 1250.98 1467.93 1282.85 1452.06 1312.18C1408.33 1392.58 1398.73 1410.85 1392.2 1426.31C1373.66 1470.71 1363.66 1516.71 1368.73 1534.71C1371 1542.98 1376.6 1549.51 1380.33 1548.31C1386.2 1546.45 1392.06 1528.71 1398.06 1494.31C1403.4 1463.78 1415.66 1435.38 1448.06 1378.85C1454.73 1367.11 1469.26 1339.25 1480.33 1316.85C1491.4 1294.45 1504.2 1270.45 1508.86 1263.51C1520.33 1246.05 1526.2 1232.98 1536.06 1202.85C1540.73 1188.71 1546.73 1172.45 1549.26 1166.71C1552.86 1158.98 1554.06 1154.71 1554.06 1149.38C1554.06 1145.38 1555.53 1134.45 1557.4 1124.98C1566.06 1080.45 1568.2 1046.31 1563.93 1021.51C1547.66 926.979 1500.06 841.646 1432.73 785.512C1388.33 748.579 1329.93 722.846 1276.73 716.846C1263.4 715.379 1205.66 714.046 1195.4 714.979Z" fill="white"/>
<path d="M1956.73 826.712C1917.93 833.512 1871.13 855.645 1846.6 878.578C1837.4 887.112 1831.4 897.378 1831.4 904.578C1831.4 919.245 1850.47 931.512 1873.4 931.512C1904.47 931.512 1951.13 912.845 1994.33 883.245C2018.87 866.445 2026.07 852.178 2017.4 837.378C2011.93 828.045 2005.13 825.512 1984.07 825.245C1974.47 825.112 1962.33 825.778 1956.73 826.712Z" fill="white"/>
<path d="M186.733 1159.51C175 1162.18 166.6 1165.65 165.533 1168.31C165.133 1169.51 168.333 1171.38 175.133 1174.05C186.067 1178.18 207.267 1184.85 209.667 1184.85C212.467 1184.85 214.467 1176.98 213.8 1168.31C213.4 1163.65 212.6 1159.11 212.2 1158.31C210.867 1156.18 199 1156.71 186.733 1159.51Z" fill="white"/>
<path d="M256.468 1309.38C236.335 1314.85 220.068 1339.11 226.468 1354.45C228.068 1358.31 229.535 1359.65 233.668 1360.71C240.735 1362.71 245.001 1362.58 258.735 1359.51C265.401 1358.18 277.935 1355.51 286.735 1353.65C312.868 1348.05 322.468 1342.85 322.468 1334.31C322.468 1325.65 309.935 1314.98 294.201 1310.18C284.335 1307.11 266.335 1306.71 256.468 1309.38Z" fill="white"/>
<path d="M157.135 1331.38C133.802 1339.78 118.068 1363.91 131.402 1370.85C135.935 1373.25 177.535 1373.65 190.735 1371.51C203.668 1369.38 208.735 1363.78 206.868 1353.51C205.668 1347.25 195.802 1336.45 187.135 1332.05C179.268 1328.05 167.268 1327.78 157.135 1331.38Z" fill="white"/>
<path d="M1908.2 1533.24C1906.33 1535.11 1904.2 1539.11 1903.4 1542.31C1901.4 1549.78 1903.26 1553.78 1910.73 1557.51C1917.93 1561.11 1937.93 1561.24 1944.46 1557.78C1951 1554.18 1951 1554.31 1933.26 1541.51C1917.66 1530.44 1912.6 1528.84 1908.2 1533.24Z" fill="white"/>
<path d="M347.398 1578.98C320.065 1584.04 295.398 1606.58 295.398 1626.18C295.398 1633.64 297.398 1638.58 302.465 1643.24C305.665 1646.31 306.198 1646.31 313.665 1644.84C343.932 1638.58 373.932 1626.44 382.465 1616.98C390.465 1608.18 389.132 1598.84 378.465 1588.58C375.665 1585.91 371.265 1582.71 368.598 1581.64C363.265 1579.38 352.465 1578.04 347.398 1578.98Z" fill="white"/>
<path d="M234.733 1622.71C225.933 1625.51 221.666 1628.18 214.333 1636.04C202.999 1647.91 199.399 1659.64 204.066 1668.71C208.466 1677.24 216.599 1676.31 251.933 1662.84C260.733 1659.64 270.199 1655.38 272.999 1653.51C281.799 1647.64 281.533 1640.04 271.933 1630.71C262.599 1621.64 247.933 1618.58 234.733 1622.71Z" fill="white"/>
<path d="M1677.67 1915.64C1662.2 1918.04 1656.07 1929.38 1661.53 1945.24C1667.93 1964.18 1699.4 1984.44 1760.07 2009.24C1792.87 2022.58 1801.93 2025.24 1815.4 2025.24C1827.27 2025.24 1833.67 2022.58 1841.13 2014.31C1845.4 2009.64 1846.07 2007.91 1846.07 2002.44C1846.07 1994.18 1841.67 1987.11 1829.13 1975.38C1817.93 1964.84 1803.67 1955.24 1784.73 1945.64C1770.87 1938.58 1741 1926.31 1725.27 1921.11C1711.4 1916.58 1688.33 1913.91 1677.67 1915.64Z" fill="white"/>
</svg>
